<?xml version="1.0" encoding="utf-8"?>
<!-- Generator: Adobe Illustrator 17.1.0, SVG Export Plug-In . SVG Version: 6.00 Build 0)  -->
<!DOCTYPE svg PUBLIC "-//W3C//DTD SVG 1.1//EN" "http://www.w3.org/Graphics/SVG/1.1/DTD/svg11.dtd">
<svg version="1.1" id="svg2" xmlns="http://www.w3.org/2000/svg" xmlns:xlink="http://www.w3.org/1999/xlink" x="0px" y="0px"
	 viewBox="0 0 76 97" enable-background="new 0 0 76 97" xml:space="preserve">
<g>
	<path fill="#FED46F" d="M72.5,85.5c-6.9-2.3-13.4-13.4-17.9-22.8l-1.1-0.6l-0.4,7.3l-6.7-5.7l-2.8,8.4l-0.4-0.5
		c3.3,11,7.9,22.5,13.6,26.3l3-9.3C59.9,88.5,85,89.7,72.5,85.5z"/>
	<path fill="#FED46F" d="M24.4,69.6l-0.7-8.8l-1.3,0.7C18,71.1,11.2,83,4,85.4c-12.5,4.1,12.7,2.9,12.7,2.9l3,9.3
		c5.7-3.8,10.4-15.6,13.7-26.7l-2.5-7.1L24.4,69.6z"/>
</g>
<g>
	<path fill="#FED46F" d="M66.1,36l7-4.2l-6.3-2.5l5-4.7l-8.2-1.3l4.3-7l-8.1,0.8l2.4-7.8l-7.6,2.9L54.8,4l-6.6,4.8l-1.9-7.9
		l-4.5,6.3L39,0l-3.7,7.3L30,1.1l-1.7,8l-6.7-4.8l0.4,8.2l-7.7-2.8l2.5,7.8l-8.2-0.6l3.7,5.7l-6.8,0.9l5.8,5.8l-7.6,3.1l7.1,4.1
		l-6.5,5l7.9,2.2l-5,6.5h8.2l-3.2,7.5l6.6-1.7l-1.3,6.7l7.3-3.7l0.6,8.1l6.1-5.4l2.7,7.7l4.5-6.8l4.6,6.8l2.6-7.8l6.2,5.3l0.4-6.8
		l6,3.3l-1.2-8.1l7.9,1.9l-3.3-7.5l8.2-0.2L65,43.1l7.8-2.3L66.1,36z M38,60.3c-14.2,0-25.7-11.5-25.7-25.7S23.8,8.9,38,8.9
		s25.7,11.5,25.7,25.7C63.7,48.8,52.2,60.3,38,60.3z"/>
	<circle fill="#FED46F" cx="38" cy="34.7" r="22.7"/>
</g>
</svg>
