<?xml version="1.0" encoding="utf-8"?>
<!-- Generator: Adobe Illustrator 16.0.4, SVG Export Plug-In . SVG Version: 6.00 Build 0)  -->
<!DOCTYPE svg PUBLIC "-//W3C//DTD SVG 1.1//EN" "http://www.w3.org/Graphics/SVG/1.1/DTD/svg11.dtd">
<svg version="1.1" id="Modo_de_edición_de_símbolo"
	 xmlns="http://www.w3.org/2000/svg" xmlns:xlink="http://www.w3.org/1999/xlink" x="0px" y="0px" width="50px" height="31px"
	 viewBox="0 0 50 31" enable-background="new 0 0 50 31" xml:space="preserve">
<g id="Ir_a_la_Web_1_">
	<g>
		<path fill="#FCFAB6" d="M5.681,15.9l8.822,6.793c0.406,0.299,0.71,0.697,0.913,0.897c0.102,0.3,0.203,0.601,0.203,0.999
			c0,0.5-0.102,0.999-0.406,1.396c-0.305,0.4-0.608,0.602-0.913,0.602c-0.202,0-0.607-0.199-1.115-0.602L-0.001,15.9L13.185,5.809
			c0.507-0.398,0.811-0.5,1.115-0.5c0.406,0,0.711,0.2,1.015,0.6c0.305,0.399,0.406,0.8,0.406,1.397c0,0.399-0.103,0.8-0.204,1
			c-0.102,0.3-0.406,0.601-0.913,0.899L5.681,15.9z"/>
		<path fill="#FCFAB6" d="M30.527,3.213l-8.721,26.074c-0.202,0.699-0.406,1.099-0.609,1.299c-0.203,0.299-0.507,0.398-0.812,0.398
			c-0.406,0-0.709-0.199-1.015-0.601c-0.305-0.397-0.405-0.8-0.405-1.299c0-0.301,0.102-0.801,0.305-1.498l8.824-26.074
			c0.201-0.699,0.405-1.1,0.608-1.298c0.202-0.101,0.508-0.2,0.81-0.2c0.406,0,0.711,0.2,0.915,0.499
			c0.201,0.3,0.403,0.8,0.403,1.199C30.832,2.115,30.73,2.613,30.527,3.213z"/>
		<path fill="#FCFAB6" d="M44.221,15.9l-8.824-6.793c-0.403-0.3-0.709-0.699-0.912-0.899c-0.103-0.3-0.201-0.599-0.201-0.999
			c0-0.5,0.102-1,0.404-1.399c0.306-0.399,0.607-0.599,1.014-0.599c0.201,0,0.609,0.199,1.117,0.499L50.001,15.8L36.716,25.988
			c-0.508,0.4-0.812,0.601-1.116,0.601c-0.404,0-0.707-0.198-1.015-0.601c-0.303-0.398-0.403-0.799-0.403-1.397
			c0-0.399,0.103-0.799,0.202-0.999c0.103-0.3,0.406-0.6,0.912-0.898L44.221,15.9z"/>
	</g>
</g>
</svg>
