<?xml version="1.0" encoding="utf-8"?>
<!-- Generator: Adobe Illustrator 16.0.4, SVG Export Plug-In . SVG Version: 6.00 Build 0)  -->
<!DOCTYPE svg PUBLIC "-//W3C//DTD SVG 1.1//EN" "http://www.w3.org/Graphics/SVG/1.1/DTD/svg11.dtd">
<svg version="1.1" id="Capa_1" xmlns="http://www.w3.org/2000/svg" xmlns:xlink="http://www.w3.org/1999/xlink" x="0px" y="0px"
	 width="44px" height="31px" viewBox="0 0 44 31" enable-background="new 0 0 44 31" xml:space="preserve">
<g>
	<path fill="#FCFAB6" d="M29.207,13.441l0.207,0.309l0,0L29.207,13.441L29.207,13.441z"/>
	<polygon fill="#FCFAB6" points="12.319,4.998 11.393,4.998 11.187,6.232 12.525,6.232 	"/>
	<path fill="#FCFAB6" d="M20.867,6.232v9.062c0-0.104,0.309-0.104,0.618-0.104c0.309-0.207,0.412-0.412,0.412-0.618V5.201h-5.87
		l0.206,1.03L20.867,6.232L20.867,6.232z"/>
	<path fill="#FCFAB6" d="M20.867,21.886v1.854h-1.854l0.205,1.029h2.679v-4.428C21.896,20.959,20.867,21.475,20.867,21.886z"/>
	<polygon fill="#FCFAB6" points="8.406,23.738 8.201,24.77 15.408,24.77 15.306,23.738 	"/>
	<polygon fill="#FCFAB6" points="2.33,23.738 2.33,6.232 7.48,6.232 7.686,5.203 0.271,5.203 0.271,24.77 4.493,24.77 4.699,23.738 
			"/>
	<polygon fill="#FCFAB6" points="4.699,23.738 4.493,24.977 3.669,30.947 7.377,30.947 8.201,24.977 8.406,23.738 	"/>
	<polygon fill="#FCFAB6" points="11.187,6.232 11.393,4.998 11.805,1.701 11.599,0.054 8.406,0.054 7.686,4.998 7.48,6.232 	"/>
	<polygon fill="#FCFAB6" points="12.319,4.998 12.525,6.232 16.232,6.232 16.026,4.998 15.306,0.054 12.113,0.054 11.599,0.054 
		11.805,1.701 	"/>
	<polygon fill="#FCFAB6" points="15.306,23.738 15.408,24.977 16.232,30.947 19.939,30.947 19.116,24.977 19.014,23.738 	"/>
	<path fill="#FCFAB6" d="M24.266,17.561c1.029-0.515,2.267-1.131,3.604-1.854c0.207-0.104,0.517-0.309,0.823-0.411l-1.233-2.163
		c-0.206,0.206-0.517,0.309-0.722,0.516c-1.235,0.824-2.473,1.543-3.398,2.266L24.266,17.561z"/>
	<path fill="#FCFAB6" d="M31.475,10.661c-1.029,0.618-1.957,1.134-2.884,1.75l0.616,1.03l0.207,0.309l0.516,0.927
		c0.928-0.515,1.854-1.028,2.885-1.646c6.074-3.604,10.812-7.003,10.914-7.827V5.101c0,0,0,0-0.104-0.103
		C42.802,4.688,37.549,7.16,31.475,10.661z"/>
	<path fill="#FCFAB6" d="M18.602,18.486c-0.31,1.44-1.544,2.162-1.544,2.162c4.119,2.164,6.178-2.472,6.178-2.472l0,0l-1.029-1.75
		l0,0C21.278,16.223,18.91,17.046,18.602,18.486z"/>
	<path fill="#FCFAB6" d="M14.174,19.826c-0.618-0.205-1.03-0.104-1.442-0.104c-0.411,0-0.927,0.104-1.544-0.104
		c-0.515-0.104-0.927-0.207-1.441-0.412c-0.412-0.104-0.824-0.205-1.236-0.517c-0.309,0.207-0.721-0.104-1.029-0.515
		c-0.206-0.206-0.31-0.411-0.516-0.618c-0.104-0.205-0.309-0.41-0.515-0.515c-0.31-0.412-0.618-0.618-0.515-0.206
		c-0.104-0.206-0.104-0.311-0.104-0.412c0-0.101,0-0.206,0-0.206c0-0.103,0-0.103,0-0.206c0-0.103,0-0.205-0.103-0.309
		c0,0,0.103,0,0.103,0.104c0.104,0,0.104,0.104,0.104,0.104c0-0.104,0-0.207,0.104-0.309c0-0.104,0-0.207,0-0.31l-0.104-0.104
		c-0.104-0.103-0.104-0.103-0.104-0.103c0.104-0.206,0.104-0.31,0.104-0.515c0-0.104,0-0.309,0-0.412c0-0.103,0-0.309,0-0.412
		s0.104-0.309,0.104-0.515c-0.31,0.411,0-0.31-0.207-0.31c0.104-0.103,0.412-0.515,0.309-0.309c0.206-0.309,0.31-0.516,0.412-0.824
		c0.104-0.205,0.31-0.412,0.618-0.412c0,0,0-0.103,0.103-0.103c0-0.104,0.104-0.104,0.104-0.104
		c0.103-0.205,0.309-0.205,0.515-0.309c0.206,0,0.412,0,0.516-0.104v-0.104c0.206-0.104,0.721-0.206,0.927-0.104
		c0.309,0,0.721,0,1.133-0.103c0.412,0,0.824-0.103,1.133,0c0.31,0.206,0.412,0.103,0.515,0.103c0.104,0,0.207-0.103,0.618,0
		c0.104,0.104,0.207,0.104,0.31,0.207s0.207,0.103,0.412,0.207c0.205,0.103,0.515,0.309,0.515,0.412
		c-0.515-0.311-0.72-0.104-1.236-0.412c0.104,0.103-0.206,0-0.411,0c-0.207,0-0.411-0.104-0.207,0.103
		c0.618,0.103,1.134,0.31,1.648,0.721c0.103,0,0.103,0.103,0.206,0.103s0.103,0.104,0.207,0.104
		c0.103,0.104,0.206,0.206,0.309,0.309c0.206,0.207,0.412,0.412,0.515,0.722c-0.205,0-0.103,0.309-0.205,0.618
		c-0.104,0.309-0.412,0.617-0.618,0.824l-0.104-0.104c0,0-0.103,0-0.103,0.104H13.87h-0.103h-0.104c0,0-0.103,0-0.103,0.103
		c0,0-0.104,0-0.206,0.103c-0.103,0-0.206,0.104-0.412,0.104c-0.721,0.103-1.545,0.103-2.06-0.206c-0.104,0-0.206-0.103-0.309-0.103
		c-0.104,0-0.206-0.104-0.31-0.104c-0.207-0.103-0.515-0.103-0.721-0.103c-0.412-0.104-0.824-0.104-1.133,0
		c0.515,0.411,1.029,0.514,1.545,0.617c0.515,0.104,1.029,0.206,1.44,0.618c-0.822-0.206-0.927-0.104-1.544-0.104
		c0,0,0.104,0,0.104,0.104c0.103,0,0.206,0.103,0.206,0.103h-0.104c-0.103,0-0.103,0-0.103,0c0,0.104-0.412,0.104-0.412,0.31
		c0,0,0.104,0,0.206,0s0.206,0.103,0.309,0.103c0.104,0,0.31,0.104,0.412,0.104c0.104,0,0.206,0,0.206,0
		c-0.309-0.104-0.309-0.206-0.206-0.206c0.104,0,0.206-0.104,0.309-0.104c0,0,0.104,0,0.31,0.104c0.103,0,0.309,0.104,0.309,0.104
		c-0.103-0.104-0.412-0.208,0-0.208c0.104,0,0.207,0,0.412,0c0.103,0,0.309,0,0.412,0.104c0,0-0.104,0.104-0.206,0.104
		c-0.515,0-0.618,0-0.618,0c0.31-0.104,0.618,0,0.927,0.104c0.311,0.104,0.619,0.104,1.03,0l0.103,0.104
		c0.104,0,0.104,0.104,0.104,0.104s0,0,0.103,0c0.104,0,0.207,0,0.31-0.104c0.103,0,0.206-0.104,0.309-0.104h0.104l0,0l-0.104,0.104
		c0,0,0.104,0,0.104-0.104c0.103,0,0.205-0.104,0.309-0.104c0.104-0.104,0.206-0.104,0.309-0.207
		c0.104-0.104,0.207-0.104,0.207-0.104c0.104-0.104,0.104-0.104,0.206-0.206c0-0.103,0.104-0.103,0.104-0.206
		c0.103-0.104,0.103-0.207,0.103-0.207c0-0.104,0-0.206,0-0.309c0.31-0.412,0.31-0.928,0.412-1.133c0,0,0,0,0,0.103s0,0.103,0,0.207
		c0,0.206,0,0.31,0,0.31s0.104-0.104,0.104-0.31c0-0.104,0-0.104,0.103-0.207c0-0.103,0-0.103,0-0.103
		c0,0.205-0.103,0.103-0.103-0.104s-0.104-0.412-0.104-0.515c0-0.31-0.104-0.515-0.206-0.722c-0.103-0.103-0.103-0.205-0.103-0.309
		s0-0.104-0.104-0.206c0,0,0-0.103-0.103-0.103c0-0.104,0-0.104-0.104-0.207c-0.103-0.104-0.103-0.104-0.206-0.206
		c-0.104-0.104-0.104-0.104-0.207-0.207s-0.103-0.103-0.205-0.206c-0.104,0-0.104-0.104-0.104-0.104
		c-0.206-0.205-0.309-0.309-0.412-0.205c-0.206-0.207-0.412-0.31-0.618-0.516c-0.103-0.103-0.206-0.103-0.309-0.207
		c-0.103-0.103-0.206-0.103-0.309-0.205c-0.206-0.104-0.412-0.207-0.618-0.31c-0.104,0-0.206-0.103-0.31-0.103
		c-0.103,0-0.206-0.104-0.309-0.104c0,0-0.103,0-0.206,0s-0.207,0-0.207,0c-0.515-0.206-0.927-0.206-1.339-0.206
		c-0.103,0.206-0.515,0.31-1.132,0.31l0.104-0.104c0,0-0.104,0.104-0.311,0.104C8.612,9.313,8.509,9.313,8.509,9.416
		c-0.103,0-0.103,0-0.103,0c-0.412,0-0.722,0.207-1.03,0.31c-0.309,0.207-0.618,0.31-1.029,0.618
		c-0.515,0.309-0.721,0.721-0.927,1.029c-0.103,0.309-0.103,0.516-0.103,0.823c0,0.104-0.104,0.31-0.104,0.413
		s-0.103,0.206-0.206,0.412c-0.103,0.103-0.103,0.205-0.206,0.412c0,0.103-0.103,0.207-0.103,0.309v-0.104c0-0.104,0-0.207,0-0.207
		s0,0,0,0.104c0,0,0,0.104-0.104,0.104c0,0.104-0.104,0.207-0.104,0.207c0,0.309,0,0.515-0.103,0.617c0,0.104,0,0.206,0,0.309
		c0,0.104,0,0.31,0,0.516c0,0.309,0,0.516,0,0.618c0,0.102,0.103,0.205,0.206,0.309c0.104,0.104,0.309,0.206,0.411,0.412
		c0,0,0,0.104,0,0.206s0,0.206,0,0.411c0,0.104,0,0.311,0.104,0.413c0,0.103,0,0.103,0,0.103l0,0l0,0
		c0.309,0.206,0.412,0.311,0.515,0.516c0.104,0.104,0.104,0.207,0.206,0.412c0.103,0.205,0.309,0.41,0.515,0.617l0.104-0.207
		c0.104,0.207,0.207,0.311,0.412,0.413c0.104,0,0.206,0.104,0.309,0.104c0.104,0,0.206,0.104,0.309,0.205
		c0.104,0,0.104,0.104,0.206,0.207c0.104,0.104,0.206,0.205,0.412,0.31c0.412-0.206,0.516-0.104,0.722-0.104
		c0.103,0.104,0.309,0.104,0.411,0.104c0.412,0.31,0.823,0.31,1.235,0.31s0.721,0,1.133,0.103c0.515,0.207,0.927,0,0.927,0.312
		h-0.103l0.206,0.309l0.103-0.205c0.309,0.104,0.824,0.104,1.03,0.311c0,0,0.206-0.104,0.412-0.207
		c0.206-0.104,0.411-0.205,0.411-0.205c-0.207,0-0.411,0-0.618,0v0.103c-0.206,0-0.618,0-0.824-0.103h0.309
		c-0.309-0.104,0-0.104,0.104-0.207c0.618,0.207,0.412-0.104,0.927-0.104c0.104,0,0.309,0.104,0.206,0.104c0.103,0,0.206,0,0.412,0
		c0.309,0,0.618,0.104,0.618-0.104c0,0,0,0,0.103,0c0-0.207-0.103-0.311-0.206-0.516c-0.103-0.205-0.309-0.412-0.515-0.617
		C14.586,19.725,14.379,19.725,14.174,19.826z"/>
</g>
</svg>
