<?xml version="1.0" encoding="utf-8"?>
<!-- Generator: Adobe Illustrator 17.1.0, SVG Export Plug-In . SVG Version: 6.00 Build 0)  -->
<!DOCTYPE svg PUBLIC "-//W3C//DTD SVG 1.1//EN" "http://www.w3.org/Graphics/SVG/1.1/DTD/svg11.dtd">
<svg version="1.1" id="svg2" xmlns="http://www.w3.org/2000/svg" xmlns:xlink="http://www.w3.org/1999/xlink" x="0px" y="0px"
	 viewBox="-36 -36 145.7 120" enable-background="new -36 -36 145.7 120" xml:space="preserve">
<g>
	<rect x="-32.7" y="-32.7" fill="#FFFFFF" width="140.1" height="112.8"/>
	<g>
		<path fill="#008DC6" d="M98.7-35.8v0.7V-35.8H81.2H63.7H46.3H28.8H11.2H-6.3h-17.5l0,0h-11.9v12.5h0.6h-0.6v18.9v18.9v18.9v18.9
			v18.9l0,0v12.5h11.5v-1.4v1.4h17.5h17.5h17.6h17.5h17.4h17.5h17.5l0,0h11.5V70.8h-0.8h0.8V52V33.1V14.3V-4.6v-18.9l0,0V-36h-11
			V-35.8z M106.5-23.4L106.5-23.4v18.9v18.9v18.9v18.9v18.8l0,0v8.2h-7.6l0,0H81.3H63.8H46.3H28.9H11.4H-6.1h-17.5l0,0h-7.6v-8.3
			l0,0V52V33.1V14.3V-4.6v-18.9l0,0v-8.2h7.6l0,0h17.5h17.5h17.5h17.4h17.5h17.5h17.5l0,0h7.6v8.3C106.3-23.4,106.5-23.4,106.5-23.4
			z"/>
		<path fill="#008DC6" d="M98.7-30.5L98.7-30.5H81.2H63.7H46.3H28.8H11.2H-6.3h-17.5l0,0h-6.9v7.2l0,0v18.9v18.9v18.9v18.9v18.7l0,0
			v7h6.6l0,0h17.5h17.5h17.5h17.5h17.4h17.5h17.5l0,0h6.6v-7.2l0,0V52V33.1V14.3V-4.6v-18.9l0,0v-7H98.7L98.7-30.5L98.7-30.5z
			 M105-23.4L105-23.4v18.9v18.9v18.9v18.9v18.8l0,0v6.8h-6.3l0,0H81.2H63.7H46.3H28.8H11.2H-6.3h-17.5l0,0h-6.3v-6.9l0,0V52V33.1
			V14.3V-4.6v-18.9l0,0v-6.8h6.3l0,0h17.5h17.5h17.5h17.6h17.5h17.5h17.5l0,0h6.3V-23.4L105-23.4z"/>
	</g>
</g>
<g>
	
		<linearGradient id="SVGID_1_" gradientUnits="userSpaceOnUse" x1="2361.7263" y1="-210.795" x2="3283.4238" y2="-210.795" gradientTransform="matrix(3.905979e-002 2.088375e-002 2.088375e-002 -3.905979e-002 -28.6736 -24.5628)">
		<stop  offset="0" style="stop-color:#BF8500"/>
		<stop  offset="0.5236" style="stop-color:#D4BD00"/>
		<stop  offset="1" style="stop-color:#BF8500"/>
	</linearGradient>
	<path fill="url(#SVGID_1_)" d="M91.1,50.9l4.8-0.3l-2.6-3l3.9-1l-3.9-2.9l4.2-2.4l-4.4-1.9l3.4-3.4l-4.8-0.6l2.4-4.2l-4.8,0.6
		l1.3-4.7l-4,2l0.5-4.5l-4,2.8l-1-4.8l-3.3,3.7L76.7,22l-2,4.4l-3.3-3.7l-0.9,4.8l-4-2.6l0.4,4l-3.8-1.4l1.4,4.7l-4.8-0.5l2.5,4.2
		l-4.8,0.8l3.5,3.3l-4.4,2l4.3,2.3l-3.8,3l3.9,0.9l-2.5,3.2l4.8,0.1l-2,4.4l4.7-1.1l-0.8,4.8l4.3-2.3l0.4,4.7l3.5-3.4l1.8,4.5
		l2.1-3.4l2.3,3.4l1.6-4.5l3.7,3.3l0.4-4.8l4.3,2.1l-0.9-4.8l4.8,1L91.1,50.9z M69.8,55.7c-7.4-3.9-10.1-13.1-6.2-20.4
		c3.9-7.4,13.1-10.1,20.4-6.2c7.3,3.9,10.1,13.2,6.2,20.4C86.3,56.9,77.1,59.7,69.8,55.7z"/>
	
		<linearGradient id="SVGID_2_" gradientUnits="userSpaceOnUse" x1="2515.428" y1="-208.2531" x2="3118.8367" y2="-208.2531" gradientTransform="matrix(3.905979e-002 2.088375e-002 2.088375e-002 -3.905979e-002 -28.6736 -24.5628)">
		<stop  offset="0" style="stop-color:#BF8500"/>
		<stop  offset="0.5236" style="stop-color:#D4BD00"/>
		<stop  offset="1" style="stop-color:#BF8500"/>
	</linearGradient>
	<circle fill="url(#SVGID_2_)" cx="76.9" cy="42.4" r="13.4"/>
</g>
<g>
	<path fill="#494949" d="M-16.4-4.8c0-0.6-0.1-3.7-0.1-4c-0.1-0.5-0.4-0.6-0.9-0.6h-1.3c-0.1,0-0.1,0-0.1-0.1v-0.6
		c0-0.1,0.1-0.1,0.1-0.1c0.3,0,1.3,0.1,3.2,0.1c0.6,0,2.8-0.1,3.3-0.1c2.8,0,5.2,0.4,7.1,2c1.4,1.3,2.4,3,2.4,5.5s-0.8,4.2-2.1,5.8
		c-2.1,2.3-5.2,2.3-6.8,2.3c-1.4,0-3-0.1-4-0.1c-1.9,0-2.8,0.1-3,0.1c-0.1,0-0.1,0-0.1-0.1V4.4c0-0.1,0.1-0.1,0.1-0.1h1.5
		c0.4,0,0.6-0.1,0.8-0.5c0.1-0.5,0.1-5.4,0.1-7.1L-16.4-4.8L-16.4-4.8z M-14.4-2.6c0,0.3,0,4,0,5.4c0,0.4,0.1,0.8,0.4,1.3
		c0.4,0.5,1.3,0.8,2.3,0.8c2.3,0,4-1,5.2-2.4c0.9-1.1,1.6-2.9,1.6-4.9c0-1.8-0.8-3.7-1.8-4.8c-1.1-1.3-3-2.1-5.5-2.1
		c-0.5,0-1.4,0-1.8,0.3c-0.3,0.3-0.4,0.5-0.4,1c0,0.9,0,3.8,0,4.2V-2.6L-14.4-2.6z"/>
	<path fill="#494949" d="M1.2-3.9c0-0.5-0.1-4.4-0.1-4.8c0-0.5-0.3-0.8-1.1-0.8h-1.3c-0.1,0-0.1,0-0.1-0.1v-0.6
		c0-0.1,0.1-0.1,0.1-0.1c0.3,0,1.4,0.1,3.4,0.1c1.9,0,2.6-0.1,2.9-0.1c0.1,0,0.1,0.1,0.1,0.1v0.5C5.1-9.6,5-9.6,5-9.6H4
		C3.6-9.6,3.2-9.5,3.2-9c0,0.3-0.1,5-0.1,5.3v1.6c0,0.3,0.1,5.3,0.1,5.5c0,0.6,0.4,0.8,1,0.8h0.9c0.1,0,0.1,0,0.1,0.1v0.6
		C5.2,5,5.1,5,4.9,5c-0.3,0-1.1-0.1-3-0.1c-2,0-3,0.1-3.3,0.1c-0.1,0-0.1,0-0.1-0.1V4.3c0-0.1,0.1-0.1,0.1-0.1h1.3
		c0.4,0,0.9-0.1,1-0.6c0-0.4,0.1-5,0.1-6.2V-4C1-3.9,1.2-3.9,1.2-3.9z"/>
	<path fill="#494949" d="M11.3-0.5c0,1,0,4,0,4.3c0,0.5,0.3,0.8,0.8,0.8h1.4c0.1,0,0.1,0.1,0.1,0.1v0.5c0,0.1,0,0.1-0.3,0.1
		s-1-0.1-3-0.1c-1.9,0-2.8,0.1-3,0.1c0-0.1,0-0.2,0-0.2V4.6c0-0.1,0-0.1,0.1-0.1h0.9c0.8,0,0.9-0.1,1-0.8c0-0.3,0.1-3.7,0.1-6.2V-5
		c0-1.4,0-3.8,0-4c0-0.4-0.3-0.5-0.9-0.5H7.2c-0.1,0-0.1,0-0.1-0.1V-10c0-0.1,0-0.1,0.1-0.1c0.3,0,1,0.1,3.2,0.1
		c0.4,0,1.6-0.1,2.4-0.1c2.5,0,3.7,0.3,4.9,1.1c1,0.8,1.6,1.9,1.6,3.2c0,2.8-2,4.4-5.5,4.4c-0.8,0-1.6,0-2.4-0.1L11.3-0.5L11.3-0.5z
		 M11.3-2.4c0.4,0.1,1.1,0.3,2,0.3c1.4,0,2.5-0.8,3-1.5c0.5-0.6,0.6-1.4,0.6-2.3c0-2.9-2.6-3.7-3.9-3.7c-0.4,0-1.3,0-1.8,0.1
		L11.3-2.4L11.3-2.4z"/>
	<path fill="#494949" d="M22.9-4.5c0-1.4,0-3.7-0.1-4.2c0-0.6-0.1-0.8-0.8-0.8h-1c-0.1,0-0.1-0.1-0.1-0.3v-0.5c0-0.1,0-0.1,0.1-0.1
		c0.3,0,1,0.1,2.9,0.1c2.1,0,3-0.1,3.3-0.1c0.1,0,0.3,0.1,0.3,0.1v0.5c0,0.2,0,0.2-0.3,0.2H26c-0.6,0-0.8,0.3-0.8,0.9
		c0,0.3-0.1,3.5-0.1,5.2v1.9c0,0.4,0,5,0.1,6c0.5,0,4.8,0.1,5.5,0c1.3-0.3,2.6-2.8,2.9-3.7c0-0.1,0.1-0.1,0.1-0.1l0.4,0.1
		c0.1,0,0.1,0.1,0,0.3C34,1.1,33.2,4.8,33,5.4c-0.3,0-2,0-3.9,0s-4,0-5.3,0c-0.9,0-1.5,0-1.9,0s-0.8,0-0.9,0s-0.1,0-0.1-0.1V4.7
		c0-0.1,0-0.1,0.1-0.1h1c0.8,0,0.9-0.3,0.9-0.6c0-0.3,0.1-5.8,0.1-7.2L22.9-4.5L22.9-4.5z"/>
	<path fill="#494949" d="M38.2,4.1C36.7,3.2,35,0.8,35-2.5c0-1.4,0.4-3.4,2-5.4c1.9-2.4,4-2.8,5.9-2.8c1.4,0,3.2,0.3,4.9,1.8
		c1.6,1.4,3,3.5,3,6.6c0,1.6-0.5,3.3-1.6,4.8c-1.4,1.8-3.3,3-6.3,3C41.8,5.4,39.9,5.2,38.2,4.1z M48.7-2.1c0-4.8-3.4-7.5-5.8-7.5
		c-0.4,0-1.8-0.3-3.4,1.3C38-7,37.3-4.7,37.3-2.9c0,5.8,4,7.7,5.8,7.7C47.8,4.7,48.7-0.1,48.7-2.1z"/>
	<path fill="#494949" d="M62.3,1.7c0.3-0.4,2.5-5.5,2.6-5.8c0.1-0.3,2.5-5.4,2.6-5.9c0-0.3,0.3-0.3,0.5-0.3c2.9,0,3.7-0.1,3.9-0.1
		c0.1,0,0.1,0.1,0.1,0.1v0.5c0,0.1,0,0.3-0.1,0.3h-1c-0.6,0-0.8,0.4-0.8,0.9C70.1-8,70-4.8,70-3.4v1.5c0,1.1,0.1,4.7,0.1,5
		c0,0.9,0.3,1.1,0.8,1.1h1.3c0,0,0,0.1,0,0.1v0.5c0,0.1,0,0.3-0.3,0.3S71.3,5,69,5c-2,0-2.9,0.1-3.2,0.1c-0.1,0-0.1-0.1-0.1-0.3V4.3
		c0-0.1,0-0.1,0.1-0.1h1.5c0.4,0,0.6-0.1,0.6-0.8c0-0.3,0-4,0-5.7v-1.3c0-1.4,0-5.3-0.1-5.5l0,0c-0.3,0.3-3.3,7.2-3.4,7.4
		c-0.1,0.3-2.5,5.8-2.6,6c-0.1,0.2-0.3,0.5-0.4,0.5S61.1,4.7,61,4.4l-3-7.3c-0.4-1-2.4-5.9-2.8-6.2c-0.1,0.3-0.1,5.8-0.1,6
		c0,0.2,0,4.9,0,5.7c0.1,1.3,0.3,1.6,1,1.6h1.1c0.1,0,0.1,0.1,0.1,0.1v0.5c0,0.1,0,0.1-0.3,0.1s-0.9-0.1-2.6-0.1
		c-1.9,0-2.6,0.1-2.8,0.1c-0.1,0-0.3,0-0.3-0.3V4.4c0-0.1,0-0.1,0.1-0.1h1.1c0.9,0,1-0.6,1.1-1.3c0.3-1.5,0.4-7.2,0.4-7.5
		c0-0.3,0-3.7,0-4.3c0-0.5,0-0.8-0.9-0.8h-1c-0.1,0-0.1-0.1-0.1-0.1v-0.6c0-0.1,0-0.1,0.1-0.1c0.3,0,0.8,0.1,2.6,0.1
		c1,0,1.6-0.1,1.9-0.1c0.4,0,0.5,0.1,0.6,0.4L62.3,1.7z"/>
	<path fill="#494949" d="M77.7-0.8c-0.3,0.5-1.4,3.8-1.5,4.2c0,0.1-0.1,0.4-0.1,0.5c0,0.3,0.3,0.5,0.8,0.5h1c0.1,0,0.3,0,0.3,0.1V5
		C78.1,5.2,78,5.3,78,5.3c-0.3,0-1.3-0.1-2.5-0.1c-1.6,0-2,0.1-2.4,0.1c-0.1,0-0.1,0-0.1-0.1V4.7c0-0.1,0.1-0.1,0.1-0.1h0.8
		c0.6,0,1-0.3,1.3-1c0.1-0.4,1.8-4.4,2.4-6.2c0.1-0.4,1.9-5.2,2.1-5.7c0.1-0.3,0.1-0.5,0-0.8c-0.1-0.1-0.1-0.3-0.1-0.3
		c0-0.1,0-0.1,0.3-0.3c0.6-0.1,1.5-0.8,1.8-1.1c0.1-0.1,0.1-0.3,0.3-0.3c0.1,0,0.1,0.1,0.3,0.4c0.4,1.4,2.1,6.3,2.5,7.6
		c0.5,1.8,1.9,5.8,2.3,6.4c0.4,0.8,0.9,1,1.5,1h0.8c0.1,0,0.1,0.1,0.1,0.1V5c-0.3,0.3-0.4,0.3-0.5,0.3c-0.4,0-0.9-0.1-2.6-0.1
		c-1.8,0-2.5,0.1-3,0.1c-0.1,0-0.1-0.1-0.1-0.3V4.6c0-0.1,0.1-0.1,0.3-0.1h0.5c0.6,0,0.8-0.3,0.6-0.9c-0.1-0.8-1-3.5-1.4-4.4
		C83.2-0.8,77.7-0.8,77.7-0.8z M82.9-1.6c-0.3-0.6-2-6.2-2-6.4c-0.1-0.1-0.1-0.3-0.1-0.3c-0.1,0-0.1,0.1-0.3,0.4
		c-0.1,0.3-2.1,5.9-2.4,6.4L82.9-1.6L82.9-1.6z"/>
</g>
<g>
	<rect x="-18" y="25.7" fill="#A0A0A0" width="66.5" height="3.1"/>
</g>
<g>
	<rect x="-18" y="31.6" fill="#A0A0A0" width="66.5" height="3.1"/>
</g>
<g>
	<rect x="-18" y="37.6" fill="#A0A0A0" width="42.8" height="3.1"/>
</g>
<g>
	<rect x="-16.2" y="51.5" fill="#A0A0A0" width="25.1" height="3.1"/>
</g>
<g>
	<rect x="18.3" y="51.3" fill="#A0A0A0" width="25.1" height="3.1"/>
</g>
</svg>
