<?xml version="1.0" encoding="utf-8"?>
<!-- Generator: Adobe Illustrator 16.0.4, SVG Export Plug-In . SVG Version: 6.00 Build 0)  -->
<!DOCTYPE svg PUBLIC "-//W3C//DTD SVG 1.1//EN" "http://www.w3.org/Graphics/SVG/1.1/DTD/svg11.dtd">
<svg version="1.1" id="Capa_1" xmlns="http://www.w3.org/2000/svg" xmlns:xlink="http://www.w3.org/1999/xlink" x="0px" y="0px"
	 width="36px" height="30.996px" viewBox="0 0 36 30.996" enable-background="new 0 0 36 30.996" xml:space="preserve">
<g>
	<path fill="#FCFAB6" d="M5.274,11.97c0-3.771,0-7.443,0-11.215c0-0.695,0.098-0.695,0.783-0.695
		c4.014,0.397,6.852,1.787,10.376,3.672c0.489,0.199,0.783,0.496,0.783,1.093c0,7.442,0,14.886,0,22.329
		c0,0.794-0.195,0.794-0.882,0.496c-3.426-1.885-6.167-3.076-9.984-3.475c-0.979-0.1-0.979-0.1-0.979-1.189
		C5.274,19.312,5.274,15.64,5.274,11.97z"/>
	<path fill="#FCFAB6" d="M24.852,11.97c0-0.695,0-1.291,0-1.986c0-1.786,0-5.954,0-7.74c0-0.496-0.293-0.794,0.196-0.895
		c1.858-0.595,2.739-0.992,4.696-1.19c0.688-0.099,0.783,0,0.783,0.694c0,7.543,0,14.985,0,22.527c0,0.496-0.098,0.695-0.686,0.795
		c-2.35,0.298-4.602,0.793-6.854,1.591c-1.564,0.594-3.133,1.188-4.6,1.982c-0.587,0.297-0.293,0.297-0.293-0.396
		c0-7.543,0-14.985,0-22.527c0-0.496,0.194-0.795,0.586-0.993c0.393-0.198,0.586-0.396,0.979-0.595
		c0.688-0.297,0.688-0.297,0.688,0.496c0,1.787,0,5.955,0,7.642c0,0.198-0.1,0.396,0.098,0.694c0.392-0.397,1.957-1.984,1.957-1.984
		c0.293,0.396,1.859,1.587,2.252,1.984C24.753,11.97,24.852,11.97,24.852,11.97z"/>
	<path fill="#FCFAB6" d="M0.185,17.427c0-3.671,0-7.443,0-11.115c0-0.992,0.195-1.092,1.077-1.092c0.293,0,0.392,0.1,0.392,0.397
		c0.098,0.198,0.098,0.397,0.098,0.595c0,6.648,0,13.199,0,19.851c0,0.893,0.392,0.893,1.273,0.893
		c4.796-0.1,9.396,0.795,13.802,2.779c0.588,0.297,1.077,0.197,1.664,0c4.403-1.887,9.594-2.879,14.39-2.779
		c0.883,0,1.371,0,1.371-0.893c0-6.649,0-13.299,0-19.948c0-0.794,0.489-1.093,1.271-0.695c0.195,0.099,0.293,0.199,0.293,0.397
		c0,0.199,0,0.396,0,0.595c0,7.344,0,14.786,0,22.131c0,1.19-0.194,1.39-1.371,1.19c-4.6-0.597-10.18-0.396-14.682,0.793
		c-0.589,0.199-1.175,0.396-1.86,0.396c-0.979,0.101-1.86-0.297-2.742-0.496c-3.035-0.692-5.971-1.09-9.103-0.991
		c-1.371,0-3.23,0.198-4.602,0.397c-0.881,0.099-1.175-0.101-1.175-0.992C0.185,24.869,0.185,21.197,0.185,17.427z"/>
	<path fill="#FCFAB6" d="M33.173,14.549c0,3.671,0,7.344,0,11.018c0,0.596-0.099,0.793-0.782,0.793
		c-4.604,0-9.595,0.795-13.804,2.58c-0.685,0.299-1.37,0.299-2.055,0c-2.937-1.289-6.068-2.084-9.3-2.381
		c-1.37-0.102-2.741-0.299-4.111-0.199c-0.392,0-0.294-0.1-0.294-0.496c0-0.098,0-0.297,0-0.396c0-7.244,0-14.488,0-21.833
		c0-0.991,0.099-1.091,0.979-0.991c0.392,0,0.588,0.197,0.588,0.594c0,0.199,0,0.397,0,0.596c0,6.55,0,13.199,0,19.75
		c0,0.894-0.196,0.894,0.685,0.992c3.329,0.297,6.461,1.19,9.496,2.58c0.783,0.396,1.566,0.793,2.35,1.288
		c0.489,0.301,0.979,0.301,1.468,0c2.544-1.486,5.188-2.479,8.026-3.174c1.272-0.3,2.546-0.498,3.815-0.597
		c0.884-0.101,1.471-0.101,1.471-0.991c0-6.75,0-13.397,0-20.146c0-0.795,0.098-0.795,0.783-0.795c0.588,0,0.687,0.199,0.687,0.795
		C33.173,7.106,33.173,10.877,33.173,14.549z"/>
</g>
</svg>
