<?xml version="1.0" encoding="utf-8"?>
<!-- Generator: Adobe Illustrator 16.0.4, SVG Export Plug-In . SVG Version: 6.00 Build 0)  -->
<!DOCTYPE svg PUBLIC "-//W3C//DTD SVG 1.1//EN" "http://www.w3.org/Graphics/SVG/1.1/DTD/svg11.dtd">
<svg version="1.1" id="Capa_1" xmlns="http://www.w3.org/2000/svg" xmlns:xlink="http://www.w3.org/1999/xlink" x="0px" y="0px"
	 width="44px" height="31px" viewBox="0 0 44 31" enable-background="new 0 0 44 31" xml:space="preserve">
<g>
	<path fill="#FCFAB6" d="M12.458,29.771c0-0.287,0.146-0.358,0.289-0.433c3.401-3.592,6.875-7.255,10.276-10.846
		c0.358-0.433,0.649-0.433,1.014-0.071c1.084,0.936,2.17,1.868,3.256,2.872c0.436,0.356,0.725,0.356,1.086,0
		c1.158-1.005,2.314-2.011,3.4-2.942c0.289-0.218,0.434-0.289,0.725,0c3.545,3.732,7.09,7.469,10.637,11.203
		c0.072,0.07,0.072,0.145,0.146,0.286C33.009,29.771,22.734,29.771,12.458,29.771z"/>
	<path fill="#FCFAB6" d="M42.852,7.507c-3.475,3.017-6.875,5.961-10.275,8.905c-1.447,1.222-2.895,2.443-4.27,3.736
		c-0.289,0.216-0.437,0.357-0.795,0.069c-4.85-4.163-9.627-8.403-14.476-12.568c0,0-0.073-0.072-0.145-0.144
		C22.878,7.507,32.791,7.507,42.852,7.507z"/>
	<path fill="#FCFAB6" d="M43.719,29.125c-1.375-1.507-2.75-2.943-4.125-4.381c-2.17-2.299-4.342-4.596-6.512-6.895
		c-0.217-0.218-0.436-0.358-0.073-0.646c3.548-3.017,7.019-6.033,10.493-9.051c0.071-0.071,0.145-0.071,0.217-0.143
		C43.719,15.047,43.719,22.016,43.719,29.125z"/>
	<path fill="#FCFAB6" d="M11.951,29.125c0-7.109,0-14.078,0-21.044c0.291,0.072,0.434,0.287,0.651,0.432
		c3.33,2.873,6.584,5.747,9.914,8.547c0.437,0.356,0.437,0.502,0.073,0.934c-3.401,3.445-6.731,6.967-9.987,10.486
		C12.385,28.623,12.241,28.838,11.951,29.125z"/>
</g>
<g opacity="0.6">
	<path fill="#FCFAB6" d="M6.693,25.963c-0.144,0.072-0.289,0.145-0.289,0.432c1.476,0,2.951,0.002,4.427,0.004v-4.803
		C9.447,23.057,8.062,24.518,6.693,25.963z"/>
	<path fill="#FCFAB6" d="M34.212,6.372c0.861-0.748,1.716-1.488,2.586-2.243c-10.062,0-19.974,0-29.96,0
		C6.91,4.201,6.983,4.273,6.983,4.273C8.271,5.38,9.549,6.5,10.831,7.615V6.372H34.212z"/>
	<path fill="#FCFAB6" d="M37.665,4.632c-0.073,0.072-0.146,0.072-0.217,0.143c-0.613,0.532-1.229,1.064-1.843,1.597h2.06
		C37.665,5.792,37.665,5.213,37.665,4.632z"/>
	<path fill="#FCFAB6" d="M6.548,5.134C6.331,4.99,6.187,4.775,5.896,4.704c0,6.966,0,13.933,0,21.043
		c0.291-0.287,0.435-0.502,0.652-0.646c1.412-1.526,2.843-3.053,4.283-4.57V8.85C9.409,7.615,7.986,6.375,6.548,5.134z"/>
</g>
<g opacity="0.3">
	<path fill="#FCFAB6" d="M0.797,22.835c-0.144,0.071-0.289,0.144-0.289,0.431c1.476,0,2.951,0.004,4.426,0.004v-4.803
		C3.551,19.928,2.166,21.389,0.797,22.835z"/>
	<path fill="#FCFAB6" d="M28.314,3.243C29.177,2.496,30.031,1.756,30.9,1C20.841,1,10.927,1,0.94,1
		c0.072,0.072,0.146,0.144,0.146,0.144c1.289,1.107,2.566,2.227,3.848,3.342V3.243H28.314z"/>
	<path fill="#FCFAB6" d="M31.77,1.504c-0.074,0.072-0.146,0.072-0.219,0.143c-0.611,0.532-1.228,1.064-1.841,1.596h2.06
		C31.77,2.664,31.77,2.085,31.77,1.504z"/>
	<path fill="#FCFAB6" d="M0.651,2.006C0.435,1.861,0.291,1.646,0,1.575c0,6.966,0,13.934,0,21.044
		c0.291-0.288,0.435-0.502,0.651-0.646c1.412-1.523,2.844-3.05,4.283-4.57V5.722C3.512,4.486,2.09,3.247,0.651,2.006z"/>
</g>
</svg>
