<?xml version="1.0" encoding="utf-8"?>
<!-- Generator: Adobe Illustrator 17.1.0, SVG Export Plug-In . SVG Version: 6.00 Build 0)  -->
<!DOCTYPE svg PUBLIC "-//W3C//DTD SVG 1.1//EN" "http://www.w3.org/Graphics/SVG/1.1/DTD/svg11.dtd">
<svg version="1.1" xmlns="http://www.w3.org/2000/svg" xmlns:xlink="http://www.w3.org/1999/xlink" x="0px" y="0px"
	 viewBox="-49 -48 144 144" enable-background="new -49 -48 144 144" xml:space="preserve">
<g id="Capa_2" display="none">
	<g display="inline">
		
			<image overflow="visible" width="85" height="85" xlink:href="../../v2/images/grainTexture.png"  transform="matrix(0.8516 0 0 0.8516 -49 -49)">
		</image>
		
			<image overflow="visible" width="85" height="85" xlink:href="../../v2/images/grainTexture.png"  transform="matrix(0.8516 0 0 0.8516 22.6143 -49)">
		</image>
		
			<image overflow="visible" width="85" height="85" xlink:href="../../v2/images/grainTexture.png"  transform="matrix(0.8516 0 0 0.8516 -49 22.9019)">
		</image>
		
			<image overflow="visible" width="85" height="85" xlink:href="../../v2/images/grainTexture.png"  transform="matrix(0.8516 0 0 0.8516 22.6143 22.9019)">
		</image>
	</g>
</g>
<g id="Capa_1">
	<g>
		
			<image overflow="visible" opacity="0.75" width="153" height="153" xlink:href="156DAF67.png"  transform="matrix(1 0 0 1 -49 -48)">
		</image>
		<g>
			<g>
				<polygon fill="#FFFFFF" points="-14,49.5 55.5,49.5 20.8,22.6 				"/>
				<polygon fill="#FFFFFF" points="57.7,48 57.7,48 57.7,5.6 28.4,25.3 				"/>
				<path fill="#FFFFFF" d="M9.8-3.8C8.6-1.7,8,0.6,8,3.1c0,2.3,0.5,4.3,1.5,6.3c1,1.9,2.6,3.4,4.7,4.3c2.1,1,4.6,1.5,7.5,1.5
					c3,0,5.6-0.6,7.6-1.7c1.8-1,3.2-2.4,4-4.2h-2.8c-0.9,1.2-2.1,2.1-3.7,2.6c-1.5,0.6-3.3,0.9-5.4,0.9c-2.2,0-4.1-0.3-5.8-1
					c-1.7-0.7-3-1.8-4-3.3c-0.9-1.5-1.4-3.2-1.4-5.1c0-1.9,0.4-3.8,1.3-5.5c0.9-1.8,2.1-3.1,3.8-4.1c1.7-1,3.7-1.5,6.1-1.5
					c2.8,0,5,0.7,6.6,2.2c1.6,1.5,2.4,3.3,2.4,5.4c0,1.2-0.3,2.4-0.8,3.5c-0.6,1.1-1.3,2-2.2,2.7c-0.7,0.5-1.2,0.8-1.6,0.8
					c-0.1,0-0.3-0.1-0.4-0.2c-0.1-0.1-0.1-0.3-0.1-0.5c0-0.2,0.1-0.6,0.2-1.2l2-9.5H24L23.6-3c-0.7-1.2-1.9-1.8-3.5-1.8
					c-2.2,0-4,1-5.4,3.1C13.6,0,13,1.9,13,4c0,1.7,0.5,3,1.4,4c1,1,2.2,1.5,3.6,1.5c1.4,0,2.6-0.5,3.6-1.5c0.1,0.5,0.4,0.9,0.7,1.1
					c0.4,0.3,0.9,0.4,1.7,0.4c2.7,0,4.9-1.1,6.7-3.4c1.4-1.8,2.1-3.8,2.1-6.1c0-1.9-0.5-3.6-1.4-5.2c-0.9-1.6-2.2-2.8-4-3.7
					c-1.7-0.9-3.7-1.3-5.9-1.3c-2.6,0-4.9,0.5-7,1.6C12.5-7.5,10.9-5.9,9.8-3.8z M22.4,3.5c-0.3,1-0.7,1.8-1.2,2.4
					c-0.3,0.4-0.7,0.7-1,0.8c-0.4,0.2-0.9,0.4-1.4,0.4c-0.7,0-1.2-0.3-1.7-0.8c-0.5-0.5-0.7-1.3-0.7-2.5c0-0.8,0.2-1.8,0.5-2.9
					c0.3-1.1,0.8-1.9,1.5-2.5c0.6-0.6,1.3-0.9,2.1-0.9c0.7,0,1.3,0.3,1.7,0.8c0.5,0.5,0.7,1.3,0.7,2.3C22.9,1.5,22.7,2.5,22.4,3.5z"
					/>
				<polygon fill="#FFFFFF" points="-16.2,5.6 -16.2,48 13.1,25.3 				"/>
				<path fill="#FFFFFF" d="M20.5-39.3c-33.7,0-61.1,27.4-61.1,61.1s27.4,61.1,61.1,61.1c33.7,0,61.1-27.4,61.1-61.1
					S54.2-39.3,20.5-39.3z M60.5,51.9H-19V4.7L20.8-25L60.5,4.7V51.9z"/>
			</g>
		</g>
	</g>
</g>
</svg>
