<?xml version="1.0" encoding="utf-8"?>
<!-- Generator: Adobe Illustrator 17.1.0, SVG Export Plug-In . SVG Version: 6.00 Build 0)  -->
<!DOCTYPE svg PUBLIC "-//W3C//DTD SVG 1.1//EN" "http://www.w3.org/Graphics/SVG/1.1/DTD/svg11.dtd">
<svg version="1.1" id="Modo_de_edición_de_símbolo"
	 xmlns="http://www.w3.org/2000/svg" xmlns:xlink="http://www.w3.org/1999/xlink" x="0px" y="0px" viewBox="0 0 59.2 48"
	 enable-background="new 0 0 59.2 48" xml:space="preserve">
<path fill="#39C5E0" d="M54.3,22.9v-6h-6v-4.2h-5.6v-6h4.4V0H41v6.6h-4.4v6H21.8v-6h-4.4V0h-6.1v6.6h4.4v6H10v4.2H4.8v6H0v21.5h6.3
	V32H10v11.2h3.3v4.7h11.2V41h-7.7v-5.5h24.8V41h-7.3v6.8h11.2v-4.7h3V32H53v12.4h6.3V22.9H54.3z M20.7,26.7h-6V16.6h6V26.7z
	 M42,26.7h-6V16.6h6V26.7z"/>
</svg>
