<?xml version="1.0" encoding="utf-8"?>
<!-- Generator: Adobe Illustrator 17.1.0, SVG Export Plug-In . SVG Version: 6.00 Build 0)  -->
<!DOCTYPE svg PUBLIC "-//W3C//DTD SVG 1.1//EN" "http://www.w3.org/Graphics/SVG/1.1/DTD/svg11.dtd">
<svg version="1.1" id="Modo_de_edición_de_símbolo"
	 xmlns="http://www.w3.org/2000/svg" xmlns:xlink="http://www.w3.org/1999/xlink" x="0px" y="0px" viewBox="0 0 23.6 25"
	 enable-background="new 0 0 23.6 25" xml:space="preserve">
<g id="Ir_a_la_Web_1_">
	<polygon fill="#39C5E0" points="13.8,11.1 13.8,23.7 17,20.5 19.4,25 21.1,24.1 18.8,19.8 23.2,19.8 	"/>
	<path fill="#39C5E0" d="M23.4,13.8c0-0.1,0-0.2,0.1-0.4c0-0.1,0-0.1,0-0.2c0-0.1,0-0.2,0-0.3c0-0.1,0-0.2,0-0.3c0-0.1,0-0.2,0-0.3
		c0-0.2,0-0.4,0-0.6c0-0.2,0-0.4,0-0.6c0-0.1,0-0.2,0-0.3c0-0.1,0-0.1,0-0.2c0-0.1,0-0.3-0.1-0.4c0,0,0,0,0-0.1c0-0.2,0-0.3-0.1-0.5
		c0,0,0,0,0,0l0,0c-0.9-5.2-5.2-9.2-10.5-9.7c0,0,0,0,0,0c-0.2,0-0.3,0-0.5,0c-0.2,0-0.4,0-0.6,0s-0.4,0-0.6,0c-0.2,0-0.3,0-0.5,0
		c0,0,0,0,0,0C5.4,0.5,1.1,4.5,0.2,9.7l0,0c0,0,0,0,0,0c0,0.2-0.1,0.3-0.1,0.5c0,0,0,0,0,0.1c0,0.1,0,0.3-0.1,0.4c0,0.1,0,0.1,0,0.2
		c0,0.1,0,0.2,0,0.3c0,0.2,0,0.4,0,0.6c0,0.2,0,0.4,0,0.6c0,0.1,0,0.2,0,0.4c0,0.1,0,0.1,0,0.2c0,0.2,0,0.3,0.1,0.5c0,0,0,0,0,0.1
		c0,0.2,0,0.3,0.1,0.5c0,0,0,0,0,0h0c0.9,4.8,4.7,8.6,9.5,9.5c0,0,0,0,0,0c0,0,0.1,0,0.1,0c0.1,0,0.2,0,0.3,0.1c0.1,0,0.2,0,0.2,0
		c0.1,0,0.2,0,0.3,0c0.1,0,0.2,0,0.3,0c0.1,0,0.2,0,0.2,0c0.2,0,0.4,0,0.6,0c0,0,0,0,0,0v-0.1v-2.6c0,0,0,0,0,0c-0.5,0-1,0-1.5-0.1
		c-0.4-1.2-0.7-2.7-1-4.7c0.8,0.1,1.7,0.1,2.5,0.1c0,0,0,0,0,0v-1.6c0,0,0,0,0,0c-0.9,0-1.8,0-2.7-0.1c-0.1-0.8-0.1-1.7-0.1-2.7
		c0-0.9,0-1.8,0.1-2.7c0.8-0.1,1.7-0.1,2.7-0.1c0.9,0,1.8,0,2.7,0.1c0,0,0,0.1,0,0.1c0.2,0.1,0.5,0.2,0.7,0.4l1,0.9
		c0-0.4,0-0.9-0.1-1.3c1.9,0.2,3.5,0.6,4.7,1c0.1,0.5,0.1,1,0.1,1.5c0,0.5,0,1-0.1,1.5c-0.4,0.1-0.8,0.2-1.2,0.3l0.9,0.8
		c0,0,0,0,0,0l2.2,2C23,15.7,23.2,14.8,23.4,13.8C23.4,13.9,23.4,13.9,23.4,13.8C23.4,13.9,23.4,13.9,23.4,13.8z M8.5,3.4
		C8.1,4.7,7.9,6.1,7.7,7.7c-1.6,0.2-3,0.4-4.3,0.8C4.3,6.2,6.2,4.3,8.5,3.4z M8.5,20.2c-2.3-0.9-4.2-2.8-5.1-5.1
		c1.3,0.3,2.7,0.6,4.3,0.8C7.9,17.5,8.1,19,8.5,20.2z M7.6,14.3c-1.9-0.2-3.5-0.6-4.7-1c-0.1-0.5-0.1-1-0.1-1.5c0-0.5,0-1,0.1-1.5
		c1.2-0.4,2.7-0.7,4.7-1c-0.1,0.8-0.1,1.7-0.1,2.5C7.5,12.7,7.5,13.5,7.6,14.3z M11.8,7.5c-0.9,0-1.7,0-2.5,0.1
		c0.2-1.9,0.6-3.5,1-4.7c0.5-0.1,1-0.1,1.5-0.1c0.5,0,1,0,1.5,0.1c0.4,1.2,0.7,2.7,1,4.7C13.5,7.5,12.7,7.5,11.8,7.5z M15.9,7.7
		c-0.2-1.6-0.4-3-0.8-4.3c2.3,0.9,4.2,2.8,5.1,5.1C18.9,8.1,17.5,7.9,15.9,7.7z"/>
</g>
</svg>
