<?xml version="1.0" encoding="utf-8"?>
<!-- Generator: Adobe Illustrator 16.0.4, SVG Export Plug-In . SVG Version: 6.00 Build 0)  -->
<!DOCTYPE svg PUBLIC "-//W3C//DTD SVG 1.1//EN" "http://www.w3.org/Graphics/SVG/1.1/DTD/svg11.dtd">
<svg version="1.1" id="Modo_de_edición_de_símbolo"
	 xmlns="http://www.w3.org/2000/svg" xmlns:xlink="http://www.w3.org/1999/xlink" x="0px" y="0px" width="29px" height="31px"
	 viewBox="0 0 29 31" enable-background="new 0 0 29 31" xml:space="preserve">
<g id="Ir_a_la_Web_1_">
	<polygon fill="#FCFAB6" points="16.762,13.8 16.762,29.299 20.762,25.299 23.662,30.898 25.762,29.8 22.963,24.398 28.262,24.398 	
		"/>
	<path fill="#FCFAB6" d="M28.85,17.1c0-0.101,0-0.301,0.101-0.398c0-0.1,0-0.199,0-0.199c0-0.104,0-0.301,0-0.398
		c0-0.103,0-0.2,0-0.302c0-0.101,0-0.199,0-0.3c0-0.201,0-0.5,0-0.7c0-0.199,0-0.5,0-0.699c0-0.101,0-0.301,0-0.4
		c0-0.099,0-0.1,0-0.2c0-0.2,0-0.399-0.101-0.5V12.9c0-0.199-0.102-0.398-0.102-0.6l0,0l0,0C27.549,0.541,14.049,0.102,13.85,0.102
		c-0.2,0-0.4,0-0.601,0l0,0C6.65,0.702,1.451,5.702,0.25,12.001l0,0l0,0c0,0.2-0.1,0.399-0.1,0.601v0.1c0,0.199,0,0.4-0.101,0.5
		c0,0.1,0,0.1,0,0.199c0,0.101,0,0.301,0,0.4c0,0.2,0,0.5,0,0.7s0,0.5,0,0.7c0,0.199,0,0.301,0,0.4s0,0.1,0,0.199
		c0,0.199,0,0.399,0.101,0.601c0,0,0,0,0,0.102c0,0.199,0.1,0.398,0.1,0.6l0,0l0,0c1.1,6,5.8,10.698,11.699,11.799l0,0h0.1
		c0.101,0,0.301,0,0.4,0.103c0.1,0,0.2,0,0.3,0c0.099,0,0.299,0,0.399,0s0.3,0,0.399,0c0.101,0,0.2,0,0.3,0c0.2,0,0.5,0,0.7,0l0,0
		V28.9v-3.199l0,0c-0.6,0-1.3-0.102-1.898-0.198c-0.5-1.501-0.9-3.401-1.2-5.801c1,0.101,2,0.101,3.1,0.101l0,0v-1.9l0,0
		c-1.2,0-2.2,0-3.3-0.101c-0.1-1-0.1-2.1-0.1-3.299c0-1.198,0-2.3,0.1-3.3c1-0.1,2.101-0.1,3.3-0.1c1.201,0,2.199,0,3.301,0.1
		c0,0.1,0,0.1,0,0.199c0.301,0.101,0.602,0.301,0.801,0.5l1.199,1.101c0-0.5,0-1.101-0.101-1.601
		c2.397,0.301,4.299,0.701,5.799,1.201c0.101,0.6,0.199,1.299,0.199,1.898s-0.101,1.3-0.199,1.897c-0.5,0.104-1,0.303-1.5,0.4
		l1.103,1l0,0l2.697,2.5C28.248,19.398,28.648,18.3,28.85,17.1C28.85,17.199,28.85,17.199,28.85,17.1
		C28.85,17.199,28.85,17.1,28.85,17.1z M10.45,4.3c-0.4,1.601-0.7,3.3-0.9,5.3c-2,0.199-3.699,0.5-5.299,0.899
		C5.35,7.7,7.65,5.4,10.45,4.3z M10.45,24.999c-2.8-1.101-5.1-3.399-6.2-6.198c1.601,0.397,3.3,0.699,5.299,0.898
		C9.75,21.6,10.049,23.398,10.45,24.999z M9.35,17.699c-2.399-0.301-4.3-0.7-5.8-1.199c-0.1-0.6-0.2-1.301-0.2-1.9
		c0-0.699,0.101-1.3,0.2-1.899c1.5-0.5,3.4-0.899,5.8-1.199c-0.1,1-0.1,2-0.1,3.101C9.25,15.699,9.25,16.699,9.35,17.699z
		 M14.549,9.3c-1.1,0-2.1,0-3.1,0.099C11.75,7,12.15,5.1,12.65,3.6c0.6-0.1,1.3-0.199,1.898-0.199c0.601,0,1.3,0.1,1.901,0.199
		c0.498,1.5,0.898,3.4,1.199,5.799C16.65,9.3,15.65,9.3,14.549,9.3z M19.549,9.6c-0.199-2-0.5-3.699-0.898-5.299
		c2.8,1.1,5.101,3.4,6.199,6.2C23.348,10.1,21.549,9.8,19.549,9.6z"/>
</g>
</svg>
