<?xml version="1.0" encoding="utf-8"?>
<!-- Generator: Adobe Illustrator 17.1.0, SVG Export Plug-In . SVG Version: 6.00 Build 0)  -->
<!DOCTYPE svg PUBLIC "-//W3C//DTD SVG 1.1//EN" "http://www.w3.org/Graphics/SVG/1.1/DTD/svg11.dtd">
<svg version="1.1" xmlns="http://www.w3.org/2000/svg" xmlns:xlink="http://www.w3.org/1999/xlink" x="0px" y="0px"
	 viewBox="-49 -48 144 144" enable-background="new -49 -48 144 144" xml:space="preserve">
<g id="Capa_2" display="none">
	<g display="inline">
		
			<image overflow="visible" width="85" height="85" xlink:href="../../v2/images/grainTexture.png"  transform="matrix(0.8516 0 0 0.8516 -49 -49)">
		</image>
		
			<image overflow="visible" width="85" height="85" xlink:href="../../v2/images/grainTexture.png"  transform="matrix(0.8516 0 0 0.8516 22.6143 -49)">
		</image>
		
			<image overflow="visible" width="85" height="85" xlink:href="../../v2/images/grainTexture.png"  transform="matrix(0.8516 0 0 0.8516 -49 22.9019)">
		</image>
		
			<image overflow="visible" width="85" height="85" xlink:href="../../v2/images/grainTexture.png"  transform="matrix(0.8516 0 0 0.8516 22.6143 22.9019)">
		</image>
	</g>
</g>
<g id="Capa_1">
	<g>
		
			<image overflow="visible" opacity="0.75" width="153" height="153" xlink:href="2D8F5C21.png"  transform="matrix(1 0 0 1 -49 -48)">
		</image>
		<g>
			<g>
				<g>
					<circle fill="#FFFFFF" cx="21.3" cy="57.3" r="2.4"/>
					<path fill="#FFFFFF" d="M20.5-39.3c-33.7,0-61.1,27.4-61.1,61.1c0,33.7,27.4,61.1,61.1,61.1c33.7,0,61.1-27.4,61.1-61.1
						C81.6-11.9,54.2-39.3,20.5-39.3z M44.3,58.1c0,3.1-2.5,5.6-5.6,5.6H3.8c-3.1,0-5.6-2.5-5.6-5.6v-70.6c0-3.1,2.5-5.6,5.6-5.6
						h34.9c3.1,0,5.6,2.5,5.6,5.6v11.7c0,0,0,0,0,0c-0.8,0-2.7,0.3-3.7,3v-8.8H2v59h38.6V30.4c0.5,0,0.9-0.1,1.4-0.1
						c0.8,0,1.6,0.1,2.3,0.2V58.1z M54.4,31.2c-0.1,0.1-0.2,0.3-0.6,0.3c-0.5,0.1-1.1-0.5-1.1-0.5c0,0-3.8-3.5-10.7-3.5
						c-2.5,0-5.2,0.5-8,1.4c0,0-3.4,1-0.6,5.4c0.6,1,3.1,5.7,2.7,7.5c-0.3,1.2-2.5,1.8-2.5,1.8c-0.2,0.1-0.4,0.1-0.6,0.1
						c-1,0-1.5-0.9-1.6-1.5l-2.9-8.7C27.7,31.6,27,32,27,32c-0.5,0.2-0.9,0.2-1.4,0.2c-2.9,0-4-3.3-4.1-3.4l-1.6-4.8
						c-1.1-3.1,1.3-5,2.7-5.5l7.1-2.2c0.1,0,11-3.1,13.5-12.8C43.4,2.5,43.7,2,44.3,2c0.4,0,0.7,0.3,0.8,0.8l3.4,9.9
						c1.6,0.4,2.9,1.5,3.4,3.1c0.5,1.5,0.2,3.2-0.8,4.5l3.4,9.9C54.5,30.5,54.7,30.9,54.4,31.2z"/>
				</g>
			</g>
		</g>
	</g>
</g>
</svg>
