<?xml version="1.0" encoding="utf-8"?>
<!-- Generator: Adobe Illustrator 17.1.0, SVG Export Plug-In . SVG Version: 6.00 Build 0)  -->
<!DOCTYPE svg PUBLIC "-//W3C//DTD SVG 1.1//EN" "http://www.w3.org/Graphics/SVG/1.1/DTD/svg11.dtd">
<svg version="1.1" id="Capa_1" xmlns="http://www.w3.org/2000/svg" xmlns:xlink="http://www.w3.org/1999/xlink" x="0px" y="0px"
	 viewBox="0 0 60 48" enable-background="new 0 0 60 48" xml:space="preserve">
<path fill="#39C5E0" d="M54.8,23.1v-6h-6v-4.2h-5.6v-6h4.4V0h-6.1v6.6h-4.4v6H22.1v-6h-4.4V0h-6.1v6.6H16v6h-5.8v4.2H5v6H0.2v21.7
	h6.3V32.2h3.7v11.2h3.3v4.7h11.2v-6.8H17v-5.5h25v5.5h-7.3v6.8h11.2v-4.7h3V32.2h4.6v12.5h6.3V23.1H54.8z M21,26.9h-6V16.7h6V26.9z
	 M42.5,26.9h-6V16.7h6V26.9z"/>
</svg>
