<?xml version="1.0" encoding="utf-8"?>
<!-- Generator: Adobe Illustrator 17.1.0, SVG Export Plug-In . SVG Version: 6.00 Build 0)  -->
<!DOCTYPE svg PUBLIC "-//W3C//DTD SVG 1.1//EN" "http://www.w3.org/Graphics/SVG/1.1/DTD/svg11.dtd">
<svg version="1.1" id="Capa_1" xmlns="http://www.w3.org/2000/svg" xmlns:xlink="http://www.w3.org/1999/xlink" x="0px" y="0px"
	 viewBox="0 0 48 48" enable-background="new 0 0 48 48" xml:space="preserve">
<g id="Capa_2" display="none">
	<g display="inline">
		
			<image overflow="visible" enable-background="new    " width="85" height="85" xlink:href="../../v2/images/grainTexture.png"  transform="matrix(0.2839 0 0 0.2839 -49 -48.3333)">
		</image>
		
			<image overflow="visible" enable-background="new    " width="85" height="85" xlink:href="../../v2/images/grainTexture.png"  transform="matrix(0.2839 0 0 0.2839 -25.1286 -48.3333)">
		</image>
		
			<image overflow="visible" enable-background="new    " width="85" height="85" xlink:href="../../v2/images/grainTexture.png"  transform="matrix(0.2839 0 0 0.2839 -49 -24.366)">
		</image>
		
			<image overflow="visible" enable-background="new    " width="85" height="85" xlink:href="../../v2/images/grainTexture.png"  transform="matrix(0.2839 0 0 0.2839 -25.1286 -24.366)">
		</image>
	</g>
</g>
<g id="Capa_1_1_">
	<g>
		
			<image overflow="visible" opacity="0.75" enable-background="new    " width="153" height="153" xlink:href="B8F0C8DC.png"  transform="matrix(0.3333 0 0 0.3333 0 0)">
		</image>
		<g>
			<g>
				<g>
					<g>
						<path fill="#FFFFFF" d="M23.2,2.9C12,2.9,2.8,12,2.8,23.3s9.1,20.4,20.4,20.4s20.4-9.1,20.4-20.4S34.4,2.9,23.2,2.9z
							 M36.1,29.6c0,0.7-0.5,1.2-1.2,1.2h-8.5v2.8h3.3c0.6,0,1.1,0.5,1.1,1.1c0,0.6-0.5,1.1-1.1,1.1H17.3c-0.6,0-1.1-0.5-1.1-1.1
							c0-0.6,0.5-1.1,1.1-1.1h3.3v-2.8H12c-0.7,0-1.2-0.5-1.2-1.2V15.3c0-0.7,0.5-1.2,1.2-1.2h22.8c0.7,0,1.2,0.5,1.2,1.2L36.1,29.6
							L36.1,29.6z"/>
						<path fill="#FFFFFF" d="M12.6,29h21.6V15.9H12.6V29z M25.7,20c0.1-0.1,0.3-0.1,0.4-0.1s0.2,0,0.3,0.1l3.9,1.8
							c0.3,0.1,0.4,0.4,0.4,0.7v0.1c0,0.3-0.2,0.6-0.4,0.7l-3.9,1.8c-0.1,0-0.2,0.1-0.3,0.1c-0.1,0-0.3,0-0.4-0.1
							c-0.2-0.1-0.3-0.4-0.3-0.6l0,0c0-0.3,0.2-0.6,0.4-0.7l2.4-1.1l-2.4-1.1c-0.3-0.1-0.4-0.4-0.4-0.7l0,0
							C25.3,20.4,25.5,20.1,25.7,20z M24.7,17.8L24.7,17.8c0.3,0,0.5,0.1,0.6,0.3c0.1,0.2,0.2,0.4,0.1,0.7l-2.5,7.9
							c-0.1,0.3-0.4,0.5-0.7,0.5l0,0c-0.2,0-0.5-0.1-0.6-0.3s-0.2-0.4-0.1-0.7l2.5-7.9C24.1,18,24.4,17.8,24.7,17.8z M16.1,22.4
							c0-0.3,0.2-0.6,0.4-0.7l3.9-1.8c0.1,0,0.2-0.1,0.3-0.1c0.1,0,0.3,0,0.4,0.1c0.2,0.1,0.3,0.4,0.3,0.6l0,0
							c0,0.3-0.2,0.6-0.4,0.7l-2.4,1.1l2.4,1.1c0.3,0.1,0.4,0.4,0.4,0.7l0,0c0,0.3-0.1,0.5-0.3,0.6c-0.1,0.1-0.3,0.1-0.4,0.1
							s-0.2,0-0.3-0.1l-3.9-1.8C16.3,23,16.1,22.8,16.1,22.4C16.1,22.5,16.1,22.4,16.1,22.4z"/>
					</g>
				</g>
			</g>
		</g>
	</g>
</g>
</svg>
