<?xml version="1.0" encoding="utf-8"?>
<!-- Generator: Adobe Illustrator 17.1.0, SVG Export Plug-In . SVG Version: 6.00 Build 0)  -->
<!DOCTYPE svg PUBLIC "-//W3C//DTD SVG 1.1//EN" "http://www.w3.org/Graphics/SVG/1.1/DTD/svg11.dtd">
<svg version="1.1" id="Modo_de_edición_de_símbolo"
	 xmlns="http://www.w3.org/2000/svg" xmlns:xlink="http://www.w3.org/1999/xlink" x="0px" y="0px" viewBox="0 0 56.4 48"
	 enable-background="new 0 0 56.4 48" xml:space="preserve">
<g>
	<path fill="#39C5E0" d="M8.1,18.7c0-5.8,0-11.7,0-17.5c0-1.2,0.1-1.2,1.3-1.1c6.4,0.6,10.9,2.7,16.5,5.7c0.7,0.4,1.2,0.8,1.2,1.7
		c0,11.7,0,23.3,0,35c0,1.2-0.4,1.3-1.5,0.7c-5.4-2.9-9.8-4.8-15.9-5.5c-1.6-0.2-1.6-0.2-1.6-1.9C8.1,30.1,8.1,24.4,8.1,18.7z"/>
	<path fill="#39C5E0" d="M39.2,18.6c0-1,0-2,0-3.1c0-2.8,0-9.4,0-12.1c0-0.8-0.5-1.2,0.3-1.4c3-0.9,4.4-1.6,7.5-1.9
		c1-0.1,1.2,0,1.2,1c0,11.8,0,23.5,0,35.3c0,0.8-0.2,1.1-1.1,1.2c-3.7,0.4-7.3,1.2-10.9,2.5c-2.4,0.9-5,1.9-7.3,3.1
		c-1,0.5-0.5,0.4-0.5-0.6c0-11.8,0-23.5,0-35.3c0-0.7,0.3-1.2,1-1.5c0.7-0.3,0.9-0.7,1.6-1c1-0.5,1.2-0.4,1.2,0.7c0,2.7,0,9.3,0,12
		c0,0.3-0.1,0.7,0.2,1.1c0.6-0.7,3.2-3.1,3.2-3.1c0.5,0.6,3,2.4,3.5,3C39,18.6,39.1,18.6,39.2,18.6z"/>
	<path fill="#39C5E0" d="M0,27.2c0-5.8,0-11.6,0-17.4C0,8.2,0.3,8,1.7,8c0.5,0,0.6,0.2,0.7,0.6c0,0.3,0,0.6,0,1c0,10.3,0,20.7,0,31
		c0,1.4,0.6,1.4,2,1.4c7.6-0.2,14.9,1.3,21.9,4.3c0.9,0.4,1.8,0.4,2.7,0c7-3,15.2-4.5,22.8-4.3c1.4,0,2.2,0,2.2-1.4
		c0-10.4,0-20.8,0-31.2c0-1.3,0.8-1.7,1.9-1.2c0.3,0.1,0.4,0.3,0.4,0.6c0,0.3,0,0.6,0,1c0,11.6,0,23.1,0,34.7c0,1.9-0.3,2.1-2.2,1.9
		c-7.3-1-16.2-0.6-23.3,1.2c-1,0.3-1.9,0.6-3,0.7c-1.6,0.1-3-0.5-4.4-0.9c-4.7-1.2-9.5-1.7-14.4-1.5c-2.2,0.1-5.1,0.3-7.3,0.6
		C0.4,46.6,0,46.2,0,44.8C0,38.9,0,33,0,27.2z"/>
	<path fill="#39C5E0" d="M52.3,22.7c0,5.8,0,11.5,0,17.3c0,0.9-0.2,1.2-1.2,1.2c-7.3,0-15.3,1.2-22,4.1c-1.2,0.5-2.2,0.4-3.3-0.1
		c-4.7-2-9.7-3.2-14.8-3.8c-2.2-0.2-4.3-0.4-6.5-0.3c-0.6,0-0.5-0.2-0.5-0.7c0-0.2,0-0.4,0-0.7c0-11.4,0-22.7,0-34.1
		C4.1,4.1,4.2,4,5.7,4c0.6,0,0.9,0.3,0.9,0.9c0,0.3,0,0.6,0,1c0,10.3,0,20.6,0,30.9c0,1.4-0.4,1.4,1,1.6c5.3,0.5,10.3,1.9,15.1,4.1
		c1.3,0.6,2.5,1.2,3.8,1.9c0.8,0.4,1.5,0.4,2.3,0c4-2.4,8.3-3.9,12.8-5c2-0.5,4-0.8,6.1-1c1.4-0.1,2.4-0.2,2.4-1.5
		c0-10.5,0-21,0-31.5C50,4.1,50,4.1,51.3,4c0.9,0,1.1,0.4,1.1,1.2C52.3,11.1,52.3,16.9,52.3,22.7z"/>
</g>
</svg>
