<?xml version="1.0" encoding="utf-8"?>
<!-- Generator: Adobe Illustrator 17.1.0, SVG Export Plug-In . SVG Version: 6.00 Build 0)  -->
<!DOCTYPE svg PUBLIC "-//W3C//DTD SVG 1.1//EN" "http://www.w3.org/Graphics/SVG/1.1/DTD/svg11.dtd">
<svg version="1.1" xmlns="http://www.w3.org/2000/svg" xmlns:xlink="http://www.w3.org/1999/xlink" x="0px" y="0px"
	 viewBox="-49 -48 144 144" enable-background="new -49 -48 144 144" xml:space="preserve">
<g id="Capa_2" display="none">
	<g display="inline">
		
			<image overflow="visible" width="85" height="85" xlink:href="../../v2/images/grainTexture.png"  transform="matrix(0.8516 0 0 0.8516 -49 -49)">
		</image>
		
			<image overflow="visible" width="85" height="85" xlink:href="../../v2/images/grainTexture.png"  transform="matrix(0.8516 0 0 0.8516 22.6143 -49)">
		</image>
		
			<image overflow="visible" width="85" height="85" xlink:href="../../v2/images/grainTexture.png"  transform="matrix(0.8516 0 0 0.8516 -49 22.9019)">
		</image>
		
			<image overflow="visible" width="85" height="85" xlink:href="../../v2/images/grainTexture.png"  transform="matrix(0.8516 0 0 0.8516 22.6143 22.9019)">
		</image>
	</g>
</g>
<g id="Capa_1">
	<g>
		<image overflow="visible" opacity="0.75" width="153" height="153" xlink:href="15AD8.png"  transform="matrix(1 0 0 1 -49 -48)">
		</image>
		<g>
			<g>
				<path fill="#FFFFFF" d="M41.1,15.1c-3.4,0-6.1,2.7-6.1,6.1c0,3.4,2.7,6.1,6.1,6.1c3.4,0,6.1-2.7,6.1-6.1
					C47.2,17.9,44.4,15.1,41.1,15.1z"/>
				<path fill="#FFFFFF" d="M20.2,49.4c-2.1,0-3.9,1.7-3.9,3.9c0,2.1,1.7,3.9,3.9,3.9c2.1,0,3.9-1.7,3.9-3.9
					C24.1,51.1,22.4,49.4,20.2,49.4z"/>
				<path fill="#FFFFFF" d="M20.5-39.3c-33.7,0-61.1,27.4-61.1,61.1c0,33.7,27.4,61.1,61.1,61.1c33.7,0,61.1-27.4,61.1-61.1
					C81.6-11.9,54.2-39.3,20.5-39.3z M43.1,52.9c0,4.6-3.8,8.4-8.4,8.4H5.8c-4.6,0-8.4-3.8-8.4-8.4V-7.6c0-4.6,3.8-8.4,8.4-8.4h28.9
					c4.6,0,8.4,3.8,8.4,8.4v4.9h-4.8v-3.9H2.2v51.7h36.1v-0.1h4.8V52.9z M6.3,22.1v-6.6h10.8v6.6H6.3z M17.1,33.2v6.6H6.3v-6.6H17.1
					z M6.3,5.2v-6.6h10.8v6.6H6.3z M61,24h-5.5c-0.4,2-1.2,3.8-2.3,5.5l3.9,3.9l-4,3.9l-3.9-3.9c-1.6,1.1-3.5,1.9-5.5,2.3v5.5h-5.6
					v-5.5c-2-0.4-3.8-1.2-5.5-2.3l-3.9,3.9l-4-3.9l3.9-3.9C27.7,27.9,27,26,26.6,24h-5.5v-5.6h5.5c0.4-2,1.2-3.8,2.2-5.5L25,9.1l4-4
					L32.8,9c1.6-1.1,3.5-1.9,5.5-2.3V1.3h5.6v5.5c2,0.4,3.9,1.1,5.5,2.3l3.9-3.9l4,3.9L53.3,13c1.1,1.6,1.9,3.5,2.3,5.5H61V24z"/>
			</g>
		</g>
	</g>
</g>
</svg>
