<?xml version="1.0" encoding="utf-8"?>
<!-- Generator: Adobe Illustrator 16.0.4, SVG Export Plug-In . SVG Version: 6.00 Build 0)  -->
<!DOCTYPE svg PUBLIC "-//W3C//DTD SVG 1.1//EN" "http://www.w3.org/Graphics/SVG/1.1/DTD/svg11.dtd">
<svg version="1.1" id="Capa_1" xmlns="http://www.w3.org/2000/svg" xmlns:xlink="http://www.w3.org/1999/xlink" x="0px" y="0px"
	 width="84px" height="31px" viewBox="0 0 84 31" enable-background="new 0 0 84 31" xml:space="preserve">
<g>
	<path opacity="0.1" fill="#FCFAB6" enable-background="new    " d="M13.176,15.5c0-6.205,3.604-11.509,8.908-14.011
		c-2.002-1.001-4.304-1.501-6.706-1.501c-8.606,0-15.513,6.906-15.513,15.514c0,8.605,6.906,15.512,15.513,15.512
		c2.402,0,4.604-0.5,6.706-1.5C16.779,27.109,13.176,21.705,13.176,15.5z"/>
	<path opacity="0.25" fill="#FCFAB6" enable-background="new    " d="M26.487,15.5c0-6.205,3.603-11.509,8.907-14.011
		c-2.002-1.001-4.305-1.501-6.707-1.501c-2.401,0-4.604,0.5-6.705,1.501c-5.204,2.502-8.907,7.806-8.907,14.011
		s3.603,11.51,8.907,14.012c2.002,1.002,4.304,1.502,6.705,1.502c2.402,0,4.604-0.5,6.707-1.502
		C30.09,27.109,26.487,21.705,26.487,15.5z"/>
	<path opacity="0.5" fill="#FCFAB6" enable-background="new    " d="M39.798,15.5c0-6.205,3.604-11.509,8.907-14.011
		C46.704,0.488,44.402-0.012,42-0.012c-2.402,0-4.604,0.5-6.706,1.501C30.09,3.991,26.387,9.295,26.387,15.5
		s3.604,11.51,8.907,14.012c2.001,1.002,4.304,1.502,6.706,1.502c2.402,0,4.604-0.5,6.705-1.502
		C43.4,27.109,39.798,21.705,39.798,15.5z"/>
	<path opacity="0.75" fill="#FCFAB6" enable-background="new    " d="M53.109,15.5c0-6.205,3.603-11.509,8.906-14.011
		c-2.002-1.001-4.305-1.501-6.705-1.501c-2.401,0-4.604,0.5-6.705,1.501C43.4,3.991,39.698,9.295,39.698,15.5
		s3.603,11.51,8.907,14.012c2.002,1.002,4.304,1.502,6.705,1.502c2.4,0,4.604-0.5,6.705-1.502
		C56.712,27.109,53.109,21.705,53.109,15.5z"/>
	<path fill="#FCFAB6" d="M68.622-0.013c-2.401,0-4.604,0.5-6.706,1.501C56.712,3.99,53.009,9.295,53.009,15.5
		c0,6.204,3.604,11.51,8.907,14.012c2.002,1,4.305,1.5,6.706,1.5c8.606,0,15.513-6.904,15.513-15.512
		C84.135,6.894,77.229-0.013,68.622-0.013z"/>
</g>
</svg>
