<?xml version="1.0" encoding="utf-8"?>
<!-- Generator: Adobe Illustrator 16.0.4, SVG Export Plug-In . SVG Version: 6.00 Build 0)  -->
<!DOCTYPE svg PUBLIC "-//W3C//DTD SVG 1.1//EN" "http://www.w3.org/Graphics/SVG/1.1/DTD/svg11.dtd">
<svg version="1.1" id="Capa_1" xmlns="http://www.w3.org/2000/svg" xmlns:xlink="http://www.w3.org/1999/xlink" x="0px" y="0px"
	 width="61px" height="31px" viewBox="0 0 61 31" enable-background="new 0 0 61 31" xml:space="preserve">
<g>
	<path fill="#FCFAB6" d="M33.8,0l2.5,27.9L47.5,31l11.2-3.1L61.1,0H33.8z M55.9,6.6l-0.2,1.7L55.6,9.1l0,0H47.4l0,0H42.6l0.301,3.5
		h4.5l0,0h7H55.3l-0.1,0.9l-0.8,9L54.3,23.102L47.3,25l0,0l0,0l-7-1.898l-0.5-5.399h1.603H43.3l0.2,2.698l3.8,1l0,0l0,0l3.802-1
		l0.398-4.398h-4.2l0,0h-7.6l-0.8-9.399v-0.9h8.6l0,0h8.602L55.9,6.6z"/>
</g>
<g>
	<path fill="#FCFAB6" d="M14.8,0C6.6,0-0.1,6.7-0.1,14.9s6.7,14.9,14.9,14.9c8.2,0,14.9-6.7,14.9-14.9S23,0,14.8,0z M21.7,9.5
		c0,0.2-0.2,0.4-0.4,0.4c-0.5,0-0.9,0.1-1.3,0.2s-0.7,0.3-1,0.6l0,0c-0.3,0.2-0.5,0.5-0.8,0.899c-0.2,0.2-0.3,0.5-0.5,0.801
		c0.7,0,1.899,0,1.899,0c0.2,0,0.4,0.199,0.4,0.399v3.4c0,0.199-0.2,0.398-0.4,0.398c0,0-3.199,0-3.6,0
		c-0.2,0.399-0.8,1.899-0.8,1.899l0,0c-0.4,0.7-0.8,1.399-1.2,2c-1.6,1.899-3.7,2.899-6.2,2.899c-0.2,0-0.399-0.199-0.399-0.399
		V19.6C7.4,19.4,7.6,19.2,7.8,19.2c0.6,0,1.2-0.101,1.7-0.3c0.4-0.2,0.8-0.5,1.2-1c0.3-0.4,0.6-1,1-1.7l0,0c0.3-0.601,0.6-1.4,1-2.4
		l0,0l1.1-2.7c0.4-0.899,0.9-1.8,1.5-2.6l0,0c1.6-1.9,3.6-2.9,6.2-2.9c0.2,0,0.4,0.2,0.4,0.4v3.5H21.7L21.7,9.5z"/>
</g>
</svg>
