<?xml version="1.0" encoding="utf-8"?>
<!-- Generator: Adobe Illustrator 17.1.0, SVG Export Plug-In . SVG Version: 6.00 Build 0)  -->
<!DOCTYPE svg PUBLIC "-//W3C//DTD SVG 1.1//EN" "http://www.w3.org/Graphics/SVG/1.1/DTD/svg11.dtd">
<svg version="1.1" id="Capa_1" xmlns="http://www.w3.org/2000/svg" xmlns:xlink="http://www.w3.org/1999/xlink" x="0px" y="0px" width="48px" height="48px"
	 viewBox="0 0 48 48" enable-background="new 0 0 48 48" xml:space="preserve">
<path fill="#FFFFFF" d="M34.5,29.9c-1.2-0.5-2.2-1-2.7-1.2v-0.2c0,0-1.5-2.2-1.5-2.4l0,0c0-0.2,0-0.5,0-0.7l0,0c1-1.2,1.5-2.4,2-3.7
	c0.7-0.7,1.2-2.7,1.2-2.7c1-2.7-0.2-2.9-0.2-2.9v-0.2c0,0,2.2-5.9-0.7-9.3c0,0-1.2-1.5-3.9-2.4c-0.2-0.2-0.5-0.2-0.5-0.5
	c0,0,0.2,0.2,0.2,0.5c-0.2,0-0.2,0-0.5-0.2c-0.2-0.2-0.5-0.5-0.7-0.7c0,0,0.2,0.2,0.5,0.7h-0.2c-0.2-0.2-0.2-0.5-0.7-0.7
	c0,0,0.2,0.2,0.2,0.7l0,0c0,0-2-1.2-2-2.7c0,0-0.5,0.2-1,0.7c0.2-0.5,0.5-0.7,0.7-1.2c0,0-0.5,0.2-1,0.7c0-0.2-1,0.2-1,1.2h-0.2
	c0-0.5,0.2-0.7,0.5-1c0,0-0.5,0.2-0.7,1L21.8,2c0.2-0.2,0.5-0.5,0.7-1c0,0-0.5,0.2-0.7,1c0-0.2,0.2-1.2-1,0.2c0,0-4.4,2-5.6,5.9
	c0,0-0.7,2,0.5,7.8c0,0.2,0,0.2,0,0.5c-1.7-0.7-0.7,2.7-0.7,2.7c0.2,1.2,0.7,1.5,1,1.7c0.5,1.5,1,2.9,2,4.2l0,0c0,0,0,0.5,0,1.2V26
	c0,0.2-1.5,2.4-1.5,2.4s0,0,0,0.2c-0.2,0-0.2,0.2-0.5,0.2c-0.7,0.2-2.4,1.2-4.4,2c-1.2,0.5-2,0.7-2,0.7c-0.2,0-0.2,0-0.2,0.2
	c0,0,0,0-0.2,0c0,0-0.5,0.2-1.2,0.7c-1.2,0.5-1.7,1-1.7,1c-0.5,0.5-0.7,1.2-1,2c-0.7,1.5-1.2,3.2-1.7,5.6c-0.2,0.7-0.2,1.7-0.5,2.4
	c6.1,2.4,13.5,3.9,21.3,3.9c7.6,0,14.9-1.5,20.8-3.9c-1-5.1-2.7-9.3-2.7-9.3C41.6,32.1,34.5,29.9,34.5,29.9z"/>
</svg>
