<?xml version="1.0" encoding="utf-8"?>
<!DOCTYPE svg PUBLIC "-//W3C//DTD SVG 1.1//EN" "http://www.w3.org/Graphics/SVG/1.1/DTD/svg11.dtd">
<svg version="1.1" id="Capa_1" xmlns="http://www.w3.org/2000/svg" xmlns:xlink="http://www.w3.org/1999/xlink" x="0px" y="0px"
	 width="32px" height="31px" viewBox="0 0 32 31" enable-background="new 0 0 32 31" xml:space="preserve">
<path fill="#FFFFFF" d="M20.992,14.251c0.713-0.478,1.426-0.597,2.262-0.597l8.688-8.688l-4.881-4.88l-8.688,8.689
	c0.119,0.832-0.121,1.547-0.596,2.262L20.992,14.251z"/>
<polygon fill="#FFFFFF" points="5.757,24.843 5.519,24.486 3.852,25.795 1.115,30.2 1.828,30.913 6.113,28.177 7.541,26.51 
	7.185,26.152 12.66,20.678 11.351,19.25 "/>
<path fill="#FFFFFF" d="M13.375,9.488c0.595-2.26,0.119-4.879-1.787-6.664C9.803,1.038,7.304,0.443,5.043,1.038l3.809,3.809
	l-0.952,3.81L4.091,9.729L0.281,5.8c-0.595,2.261,0,4.761,1.786,6.546c1.904,1.904,4.523,2.381,6.903,1.666l0,0l15.83,15.833
	c0.595,0.595,1.429,0.952,2.261,0.952c0.833,0,1.667-0.357,2.263-0.952c1.31-1.192,1.31-3.334,0-4.522L13.375,9.488z M27.3,29.365
	c-0.716,0-1.19-0.594-1.19-1.188c0-0.715,0.596-1.188,1.19-1.188c0.714,0,1.19,0.595,1.19,1.188
	C28.608,28.893,28.014,29.365,27.3,29.365z"/>
</svg>
