<?xml version="1.0" encoding="utf-8"?>
<!-- Generator: Adobe Illustrator 16.0.4, SVG Export Plug-In . SVG Version: 6.00 Build 0)  -->
<!DOCTYPE svg PUBLIC "-//W3C//DTD SVG 1.1//EN" "http://www.w3.org/Graphics/SVG/1.1/DTD/svg11.dtd">
<svg version="1.1" id="Capa_1" xmlns="http://www.w3.org/2000/svg" xmlns:xlink="http://www.w3.org/1999/xlink" x="0px" y="0px"
	 width="40px" height="31px" viewBox="0 0 40 31" enable-background="new 0 0 40 31" xml:space="preserve">
<g>
	<path fill="#FCFAB6" d="M6.12,23.432V2.078h27.453c0,0,0,12.71,0,12.914l2.032,1.627V2.078c0-1.117-1.117-2.033-2.235-2.033H2.054
		c-1.119,0-2.034,0.916-2.034,2.033v21.556c0,1.118,0.915,1.83,2.034,1.83h18.099c-0.103-1.019,0-1.019,0.203-2.032H6.12
		L6.12,23.432z M2.867,14.381c-0.61,0-1.221-0.507-1.221-1.219s0.509-1.221,1.221-1.221c0.609,0,1.22,0.509,1.22,1.221
		S3.477,14.381,2.867,14.381z"/>
	<path fill="#FCFAB6" d="M12.832,12.653L12.832,12.653c0.102-0.203,0.102-0.203,0.102-0.306l0,0
		c0.407-0.609,1.017-0.916,1.729-0.916c0.102,0,0.202,0,0.305,0c-0.305-0.203-0.711-0.304-1.118-0.304
		c-0.407,0.101-0.813,0.304-1.119,0.609c-0.305,0.405-0.508,0.813-0.508,1.221s0.204,0.812,0.508,1.118
		C12.628,13.568,12.628,13.162,12.832,12.653L12.832,12.653z"/>
	<path fill="#FCFAB6" d="M38.453,23.531c-0.508-0.203-0.915-0.303-1.118-0.914c-0.306-1.119-1.017-2.033-1.729-3.051
		c-0.711-1.019-1.422-2.744-2.744-3.051c-0.405-0.101-0.713,0-1.117,0.104c-0.915,0.203-1.831-0.611-2.645-0.712
		c-0.813-0.103-1.524,0-2.236,0.304l0,0l-0.915,0.611c-0.509-0.307-1.017-0.406-1.525-0.406c-0.202,0-0.405,0-0.608,0.102
		c-0.508,0.104-1.019,0.406-1.321,0.916c-0.103,0.103-0.103,0.103-0.203,0.201h-0.103l0,0l0,0l-6.507-4.979
		c-1.423-1.118-2.745,0.609-1.525,1.627c0.407,0.307,7.322,6.608,8.338,7.522c0.305,0.203,0.407,0.307,0.407,0.609
		c-0.104,0.306-0.205,0.509-0.205,0.814c-0.305,1.116-0.812,2.133,0.103,3.149l6.712,3.66c0.508,0.103,1.118-0.103,1.627,0
		c1.016,0.103,2.033,0.405,2.948,0.915l5.896-6.711C39.368,23.939,38.962,23.734,38.453,23.531z"/>
</g>
</svg>
