<?xml version="1.0" encoding="utf-8"?>
<!-- Generator: Adobe Illustrator 16.0.4, SVG Export Plug-In . SVG Version: 6.00 Build 0)  -->
<!DOCTYPE svg PUBLIC "-//W3C//DTD SVG 1.1//EN" "http://www.w3.org/Graphics/SVG/1.1/DTD/svg11.dtd">
<svg version="1.1" id="Capa_1" xmlns="http://www.w3.org/2000/svg" xmlns:xlink="http://www.w3.org/1999/xlink" x="0px" y="0px"
	 width="38px" height="31px" viewBox="0 0 38 31" enable-background="new 0 0 38 31" xml:space="preserve">
<path fill="#FCFAB6" d="M34.727,14.808V10.95H30.87V8.28h-3.562V4.423h2.771V0.169h-3.957v4.254h-2.769V8.28h-9.396V4.423h-2.771
	V0.169H7.23v4.254h2.769V8.28H6.34v2.67H3.076v3.857H0.01v13.848h4.055v-8.013h2.374v7.121h2.077v3.066h7.121v-4.35h-4.846V22.92
	h15.825v3.561h-4.649v4.352h7.122v-3.066h1.878v-7.121h2.969v8.013h4.056V14.808H34.727L34.727,14.808z M13.264,17.281H9.406v-6.429
	h3.857L13.264,17.281L13.264,17.281z M26.913,17.281h-3.856v-6.429h3.856V17.281z"/>
</svg>
