<?xml version="1.0" standalone="no"?>
<!DOCTYPE svg PUBLIC "-//W3C//DTD SVG 1.1//EN" "http://www.w3.org/Graphics/SVG/1.1/DTD/svg11.dtd" >
<svg>
<metadata>
Created by FontForge 20110222 at Tue Oct 15 09:19:12 2013
 By Orthosie Webhosting
Copyright (c) 2013 Monotype Imaging Inc. All rights reserved.
</metadata>
<defs>
<font id="CharlesModernRegular" horiz-adv-x="546" >
  <font-face 
    font-family="CharlesModernRegular"
    font-weight="400"
    font-stretch="normal"
    units-per-em="1000"
    panose-1="2 11 5 3 4 5 3 2 2 4"
    ascent="800"
    descent="-200"
    x-height="510"
    cap-height="712"
    bbox="-177 -231 1262 946"
    underline-thickness="50"
    underline-position="-50"
    unicode-range="U+000D-FB02"
  />
<missing-glyph horiz-adv-x="679" 
d="M83 712h513v-712h-513v712zM170 77h339v558h-339v-558z" />
    <glyph glyph-name=".notdef" horiz-adv-x="679" 
d="M83 712h513v-712h-513v712zM170 77h339v558h-339v-558z" />
    <glyph glyph-name=".null" horiz-adv-x="0" 
 />
    <glyph glyph-name="nonmarkingreturn" unicode="&#xd;" horiz-adv-x="278" 
 />
    <glyph glyph-name="NULL" horiz-adv-x="0" 
 />
    <glyph glyph-name="NULL" horiz-adv-x="0" 
 />
    <glyph glyph-name="space" unicode=" " horiz-adv-x="278" 
 />
    <glyph glyph-name="exclam" unicode="!" horiz-adv-x="298" 
d="M193 0h-88v94h88v-94zM190 712v-255l-15 -273h-52l-15 273v255h82z" />
    <glyph glyph-name="quotedbl" unicode="&#x22;" horiz-adv-x="406" 
d="M248 712h78v-288h-78v288zM80 712h78v-288h-78v288z" />
    <glyph glyph-name="numbersign" unicode="#" 
d="M339 429h-119l-19 -145h119zM128 223h-98v61h106l19 145h-98v60h106l29 223h66l-30 -223h119l30 223h65l-30 -223h98v-60h-105l-20 -145h98v-61h-105l-30 -223h-65l29 223h-119l-29 -223h-66z" />
    <glyph glyph-name="dollar" unicode="$" 
d="M256 6q-201 21 -211 224h78q10 -130 133 -147v242q-108 17 -154 60t-46 122t54 133.5t146 63.5v88h64v-87q182 -18 196 -206h-76q-10 119 -120 133v-235q84 -15 122.5 -36.5t57.5 -58.5t19 -93q0 -86 -52.5 -140.5t-146.5 -62.5v-129h-64v129zM320 82q56 4 88.5 37.5
t32.5 87.5q0 52 -30.5 76t-90.5 34v-235zM256 633q-59 -5 -89.5 -39.5t-30.5 -81.5q0 -42 26.5 -68.5t93.5 -38.5v228z" />
    <glyph glyph-name="percent" unicode="%" horiz-adv-x="901" 
d="M630 712h76l-434 -712h-76zM688 322q-47 0 -74 -35t-27 -97q0 -64 26 -99t75 -35q48 0 74.5 34.5t26.5 99.5t-26.5 98.5t-74.5 33.5zM688 -5q-80 0 -125.5 49.5t-45.5 145.5q0 91 46.5 142.5t124.5 51.5q80 0 125.5 -49.5t45.5 -144.5q0 -89 -46 -142t-125 -53zM213 656
q-47 0 -74 -35t-27 -97q0 -64 26 -99t75 -35q48 0 74.5 34.5t26.5 99.5t-26.5 98.5t-74.5 33.5zM213 329q-80 0 -125.5 49.5t-45.5 145.5q0 91 46.5 142.5t124.5 51.5q80 0 125.5 -49.5t45.5 -144.5q0 -89 -46 -142t-125 -53z" />
    <glyph glyph-name="ampersand" unicode="&#x26;" horiz-adv-x="638" 
d="M262 425q104 53 104 134q0 36 -23 59.5t-59 23.5q-42 0 -64.5 -24.5t-22.5 -59.5q0 -33 15 -63.5t50 -69.5zM239 340q-75 -40 -98 -72.5t-23 -79.5q0 -57 41.5 -94t109.5 -37q48 0 95.5 21.5t68.5 52.5zM578 370q0 -57 -13.5 -123t-35.5 -106l133 -141h-107l-74 82
q-78 -96 -217 -96q-106 0 -167.5 53.5t-61.5 141.5q0 70 33.5 117t123.5 95q-72 88 -72 164q0 69 46.5 113t115.5 44q75 0 119 -42t44 -110q0 -54 -29.5 -97.5t-108.5 -89.5l166 -180q12 27 21 76.5t9 98.5h75z" />
    <glyph glyph-name="quotesingle" unicode="'" horiz-adv-x="238" 
d="M80 712h78v-288h-78v288z" />
    <glyph glyph-name="parenleft" unicode="(" horiz-adv-x="305" 
d="M204 -126q-148 236 -148 460q0 108 40.5 227.5t108.5 227.5h66q-60 -98 -96.5 -224t-36.5 -230q0 -120 36 -239t96 -222h-66z" />
    <glyph glyph-name="parenright" unicode=")" horiz-adv-x="305" 
d="M101 789q148 -236 148 -460q0 -107 -40 -226.5t-109 -229.5h-66q59 99 96 223t37 232q0 120 -36 239t-96 222h66z" />
    <glyph glyph-name="asterisk" unicode="*" horiz-adv-x="379" 
d="M46 650l120 -85l-13 147h73l-14 -148l121 86l37 -63l-135 -62l135 -62l-37 -63l-121 85l14 -147h-73l14 147l-121 -85l-37 63l134 62l-134 62z" />
    <glyph glyph-name="plus" unicode="+" 
d="M238 516h70v-188h188v-70h-188v-188h-70v188h-188v70h188v188z" />
    <glyph glyph-name="comma" unicode="," horiz-adv-x="268" 
d="M78 113h113v-113q0 -69 -32.5 -111t-80.5 -53v69q26 11 38 32t12 63h-50v113z" />
    <glyph glyph-name="hyphen" unicode="-" horiz-adv-x="450" 
d="M60 217v76h330v-76h-330z" />
    <glyph glyph-name="period" unicode="." horiz-adv-x="268" 
d="M191 0h-113v113h113v-113z" />
    <glyph glyph-name="slash" unicode="/" horiz-adv-x="376" 
d="M303 730h73l-303 -748h-73z" />
    <glyph glyph-name="zero" unicode="0" 
d="M509 355q0 -192 -59.5 -280.5t-176.5 -88.5q-118 0 -177 88t-59 281q0 371 236 371q117 0 176.5 -89t59.5 -282zM421 355q0 153 -35.5 222.5t-112.5 69.5t-112.5 -70t-35.5 -222q0 -154 35.5 -222t112.5 -68q76 0 112 67t36 223z" />
    <glyph glyph-name="one" unicode="1" 
d="M265 618l-164 -84v90l208 106h43v-730h-87v618z" />
    <glyph glyph-name="two" unicode="2" 
d="M46 77l220 224q79 79 108 125t29 99q0 54 -35 89t-94 35q-137 0 -146 -158h-83q2 111 62.5 173t165.5 62q104 0 159.5 -53.5t55.5 -145.5q0 -60 -28 -113.5t-108 -136.5l-190 -192h327v-85h-443v77z" />
    <glyph glyph-name="three" unicode="3" 
d="M247 406q70 0 111 33t41 91q0 54 -34 87t-91 33q-66 0 -102 -39.5t-39 -111.5h-84q2 106 60 166.5t167 60.5q96 0 152.5 -52.5t56.5 -136.5q0 -56 -29.5 -101t-78.5 -63v-2q126 -34 126 -172q0 -94 -62 -153.5t-165 -59.5q-112 0 -175 57t-65 172h85q4 -70 44 -112
t110 -42q64 0 103 38t39 98q0 131 -173 131h-32v78h35z" />
    <glyph glyph-name="four" unicode="4" 
d="M307 712h90l-275 -472h218v255h84v-255h94v-82h-94v-158h-84v158h-304v88z" />
    <glyph glyph-name="five" unicode="5" 
d="M81 712h384v-81h-308v-220h2q47 54 140 54q94 0 148.5 -62t54.5 -174q0 -104 -62 -173.5t-164 -69.5q-192 0 -217 190h82q14 -113 133 -113q69 0 105 45t36 120q0 71 -34 116t-102 45q-90 0 -136 -69h-62v392z" />
    <glyph glyph-name="six" unicode="6" 
d="M277 62q69 0 105.5 44.5t36.5 118.5q0 69 -33.5 110.5t-102.5 41.5q-65 0 -104 -43.5t-39 -105.5q0 -73 36 -119.5t101 -46.5zM417 548q-6 46 -34.5 74t-79.5 28q-86 0 -127.5 -71t-46.5 -220h2q26 48 71 72t96 24q96 0 152 -62.5t56 -164.5q0 -109 -62.5 -175.5
t-164.5 -66.5q-118 0 -175 83.5t-57 279.5q0 181 66.5 279t191.5 98q88 0 137.5 -47t57.5 -131h-83z" />
    <glyph glyph-name="seven" unicode="7" 
d="M62 712h436v-82l-291 -630h-91l296 631h-350v81z" />
    <glyph glyph-name="eight" unicode="8" 
d="M273 726q98 0 154.5 -50.5t56.5 -137.5q0 -65 -32.5 -109.5t-87.5 -60.5v-2q138 -38 138 -182q0 -88 -63.5 -143t-165.5 -55q-105 0 -166.5 53t-61.5 145q0 68 33.5 115.5t99.5 66.5v2q-50 14 -82 54.5t-32 111.5q0 88 56 140t153 52zM273 404q58 0 92 34.5t34 90.5
t-33.5 89.5t-92.5 33.5q-60 0 -92 -33t-32 -90q0 -55 34.5 -90t89.5 -35zM273 59q66 0 105 35.5t39 98.5q0 57 -39 92t-105 35q-69 0 -106 -36.5t-37 -95.5t39.5 -94t103.5 -35z" />
    <glyph glyph-name="nine" unicode="9" 
d="M276 648q-69 0 -105.5 -44t-36.5 -118q0 -69 33.5 -110t102.5 -41q64 0 103.5 43t39.5 105q0 75 -36.5 120t-100.5 45zM136 162q13 -100 121 -100q81 0 121.5 71t45.5 220h-2q-22 -45 -67.5 -70.5t-99.5 -25.5q-95 0 -151.5 61.5t-56.5 164.5q0 107 61.5 175t165.5 68
q117 0 174.5 -83t57.5 -280q0 -180 -65.5 -278.5t-184.5 -98.5q-94 0 -144.5 46t-58.5 130h83z" />
    <glyph glyph-name="colon" unicode=":" horiz-adv-x="268" 
d="M191 397h-113v113h113v-113zM191 0h-113v113h113v-113z" />
    <glyph glyph-name="semicolon" unicode=";" horiz-adv-x="268" 
d="M191 397h-113v113h113v-113zM78 113h113v-113q0 -69 -32.5 -111t-80.5 -53v69q26 11 38 32t12 63h-50v113z" />
    <glyph glyph-name="less" unicode="&#x3c;" 
d="M383 572l49 -49l-230 -230l230 -230l-49 -49l-281 279z" />
    <glyph glyph-name="equal" unicode="=" 
d="M496 432v-70h-446v70h446zM496 224v-70h-446v70h446z" />
    <glyph glyph-name="greater" unicode="&#x3e;" 
d="M163 14l-49 49l230 230l-230 230l49 49l281 -279z" />
    <glyph glyph-name="question" unicode="?" horiz-adv-x="502" 
d="M35 525q7 93 64.5 147t156.5 54q94 0 148.5 -51.5t54.5 -136.5q0 -101 -89 -182q-49 -45 -69.5 -74t-20.5 -58v-34h-82v45q0 37 19.5 69.5t68.5 75.5q45 39 66.5 75.5t21.5 79.5q0 54 -32.5 85.5t-85.5 31.5q-125 0 -140 -127h-81zM295 0h-113v113h113v-113z" />
    <glyph glyph-name="at" unicode="@" horiz-adv-x="920" 
d="M427 88q60 0 103 59t43 134q0 43 -22 70.5t-67 27.5q-64 0 -106 -55.5t-42 -132.5q0 -48 24 -75.5t67 -27.5zM617 121q0 -14 11.5 -22.5t24.5 -8.5q36 0 70.5 28t55.5 78.5t21 114.5q0 118 -84 195t-223 77q-104 0 -183 -47t-122.5 -131.5t-43.5 -185.5q0 -152 94.5 -243
t245.5 -91q69 0 136 21.5t118 53.5l34 -54q-143 -86 -291 -86q-186 0 -298 108t-112 291q0 187 118 308t298 121q116 0 202 -43t132.5 -120.5t46.5 -172.5q0 -119 -65.5 -200t-160.5 -81q-71 0 -94 60q-56 -67 -135 -67q-72 0 -111.5 46t-39.5 125q0 103 63 174.5t153 71.5
q88 0 119 -58h2l9 47h75l-58 -256q-8 -30 -8 -53z" />
    <glyph glyph-name="A" unicode="A" horiz-adv-x="626" 
d="M320 595h-2l-125 -330h243zM281 712h81l267 -712h-95l-68 188h-303l-72 -188h-94z" />
    <glyph glyph-name="B" unicode="B" horiz-adv-x="638" 
d="M83 712h262q113 0 173.5 -45t60.5 -135q0 -56 -32.5 -98t-88.5 -58v-2q75 -18 108.5 -61t33.5 -119q0 -52 -27 -96t-78 -71t-129 -27h-283v712zM170 409h176q64 0 101.5 29.5t37.5 84.5q0 42 -18.5 65.5t-48.5 34.5t-98 11h-150v-225zM170 78h193q66 0 104.5 32t38.5 91
q0 129 -173 129h-163v-252z" />
    <glyph glyph-name="C" unicode="C" horiz-adv-x="659" 
d="M626 220q-40 -234 -286 -234q-88 0 -145 35.5t-95.5 117.5t-38.5 217q0 128 39.5 211t103.5 121t160 38q233 0 265 -231h-92q-23 149 -173 149q-108 0 -159 -73t-51 -220q0 -95 24.5 -160.5t63.5 -94.5t107 -29q82 0 130 39t58 114h89z" />
    <glyph glyph-name="D" unicode="D" horiz-adv-x="690" 
d="M293 81q84 0 133.5 24t79 80.5t29.5 175.5q0 149 -58 209.5t-167 60.5h-140v-550h123zM83 0v712h240q101 0 168.5 -37t102.5 -112.5t35 -210.5t-41.5 -212t-113 -108.5t-177.5 -31.5h-214z" />
    <glyph glyph-name="E" unicode="E" horiz-adv-x="576" 
d="M83 712h443v-81h-356v-234h333v-81h-333v-235h366v-81h-453v712z" />
    <glyph glyph-name="F" unicode="F" horiz-adv-x="536" 
d="M83 0v712h429v-81h-342v-249h319v-81h-319v-301h-87z" />
    <glyph glyph-name="G" unicode="G" horiz-adv-x="706" 
d="M556 99h-2q-33 -58 -82 -85.5t-129 -27.5q-282 0 -282 370q0 133 39.5 215.5t103.5 118.5t159 36q119 0 184.5 -56t81.5 -174h-92q-23 148 -174 148q-109 0 -159 -70t-50 -223q0 -93 21 -156t61 -95.5t117 -32.5q97 0 149 62.5t52 166.5v4h-184v75h265v-375h-79v99z" />
    <glyph glyph-name="H" unicode="H" horiz-adv-x="719" 
d="M83 712h87v-302h379v302h87v-712h-87v328h-379v-328h-87v712z" />
    <glyph glyph-name="I" unicode="I" horiz-adv-x="253" 
d="M170 0h-87v712h87v-712z" />
    <glyph glyph-name="J" unicode="J" horiz-adv-x="507" 
d="M425 712v-494q0 -110 -55 -171t-155 -61q-102 0 -155 52.5t-53 152.5v18l87 -1v-15q0 -61 31.5 -93t88.5 -32q124 0 124 153v491h87z" />
    <glyph glyph-name="K" unicode="K" horiz-adv-x="622" 
d="M83 712h87v-360l320 360h115l-270 -300l278 -412h-111l-234 352l-98 -104v-248h-87v712z" />
    <glyph glyph-name="L" unicode="L" horiz-adv-x="529" 
d="M83 712h87v-631h345v-81h-432v712z" />
    <glyph glyph-name="M" unicode="M" horiz-adv-x="858" 
d="M191 712l235 -578h2l246 578h101v-712h-80v573h-2l-238 -573h-55l-237 573h-2v-573h-78v712h108z" />
    <glyph glyph-name="N" unicode="N" horiz-adv-x="713" 
d="M83 712h87l378 -568h2v568h80v-712h-86l-379 567h-2v-567h-80v712z" />
    <glyph glyph-name="O" unicode="O" horiz-adv-x="706" 
d="M154 356q0 -104 14 -151t39 -78.5t61.5 -45.5t84.5 -14q67 0 111 29t66 87.5t22 171.5q0 121 -21.5 177.5t-66 86.5t-111.5 30q-45 0 -85 -18.5t-64 -49t-37 -76t-13 -149.5zM61 356q0 117 21 180t58 104t90.5 63.5t122.5 22.5q96 0 161 -37.5t98 -114t33 -219.5
q0 -129 -37 -211t-101.5 -120t-153.5 -38q-70 0 -121.5 19.5t-89.5 61.5t-59 105t-22 184z" />
    <glyph glyph-name="P" unicode="P" horiz-adv-x="607" 
d="M170 369h168q66 0 110 33t44 99q0 63 -39 97t-113 34h-170v-263zM170 290v-290h-87v712h268q112 0 171.5 -56.5t59.5 -154.5q0 -91 -65 -151t-164 -60h-183z" />
    <glyph glyph-name="Q" unicode="Q" horiz-adv-x="706" 
d="M61 356q0 117 21 180t58 104t90.5 63.5t122.5 22.5q96 0 161 -37.5t98 -114t33 -219.5q0 -203 -95 -298l89 -118l-65 -49l-91 121q-56 -25 -130 -25q-70 0 -121.5 19.5t-89.5 61.5t-59 105t-22 184zM154 356q0 -104 14 -151t39 -78.5t61.5 -45.5t84.5 -14q44 0 79 12
l-89 120l64 49l91 -122q27 34 40.5 83t13.5 146q0 121 -21.5 177.5t-66 86.5t-111.5 30q-45 0 -85 -18.5t-64 -49t-37 -76t-13 -149.5z" />
    <glyph glyph-name="R" unicode="R" horiz-adv-x="647" 
d="M170 381h183q70 0 112 31t42 95q0 125 -152 125h-185v-251zM83 712h283q112 0 171.5 -53t59.5 -152q0 -76 -46.5 -131t-125.5 -68l199 -308h-109l-194 302h-151v-302h-87v712z" />
    <glyph glyph-name="S" unicode="S" horiz-adv-x="646" 
d="M494 506q-8 69 -46.5 105.5t-122.5 36.5q-80 0 -119 -35.5t-39 -92.5t38.5 -81t138.5 -34q107 -11 155.5 -33t71.5 -62.5t23 -107.5q0 -101 -72 -158.5t-196 -57.5q-134 0 -203 58t-78 179h95q8 -85 56 -120t136 -35q81 0 124.5 34t43.5 98q0 55 -35.5 81t-152.5 39
q-134 12 -188 57.5t-54 137.5q0 60 30 108t88 75.5t140 27.5q123 0 186 -52t70 -168h-90z" />
    <glyph glyph-name="T" unicode="T" horiz-adv-x="535" 
d="M7 712h521v-81h-217v-631h-87v631h-217v81z" />
    <glyph glyph-name="U" unicode="U" horiz-adv-x="695" 
d="M617 273q0 -135 -72.5 -211t-197.5 -76q-129 0 -199 72.5t-70 204.5v449h87v-440q0 -110 47.5 -158t135.5 -48t135 55t47 154v437h87v-439z" />
    <glyph glyph-name="V" unicode="V" horiz-adv-x="597" 
d="M-3 712h91l206 -597h2l210 597h94l-263 -712h-92z" />
    <glyph glyph-name="W" unicode="W" horiz-adv-x="978" 
d="M15 712h88l155 -576h2l185 576h95l169 -576h2l164 576h88l-212 -712h-87l-172 600h-2l-191 -600h-83z" />
    <glyph glyph-name="X" unicode="X" horiz-adv-x="591" 
d="M19 712h105l172 -283l172 283h105l-221 -348l232 -364h-106l-182 301l-183 -301h-106l233 364z" />
    <glyph glyph-name="Y" unicode="Y" horiz-adv-x="569" 
d="M241 286l-246 426h102l187 -344l188 344h102l-246 -426v-286h-87v286z" />
    <glyph glyph-name="Z" unicode="Z" horiz-adv-x="584" 
d="M55 712h496v-87l-430 -544h449v-81h-550v89l428 542h-393v81z" />
    <glyph glyph-name="bracketleft" unicode="[" horiz-adv-x="305" 
d="M73 -152v966h217v-64h-143v-838h143v-64h-217z" />
    <glyph glyph-name="backslash" unicode="\" horiz-adv-x="376" 
d="M376 -18h-73l-303 748h73z" />
    <glyph glyph-name="bracketright" unicode="]" horiz-adv-x="305" 
d="M232 814v-966h-217v64h143v838h-143v64h217z" />
    <glyph glyph-name="asciicircum" unicode="^" 
d="M532 442l-49 -49l-210 210l-210 -210l-49 49l259 259z" />
    <glyph glyph-name="underscore" unicode="_" horiz-adv-x="490" 
d="M-5 -125v50h500v-50h-500z" />
    <glyph glyph-name="grave" unicode="`" horiz-adv-x="352" 
d="M55 718h105l101 -146h-88z" />
    <glyph glyph-name="a" unicode="a" horiz-adv-x="537" 
d="M365 328q0 127 -109 127q-104 0 -117 -95h-77q8 82 62.5 123t136.5 41q186 0 186 -197v-210q0 -33 10.5 -43.5t33.5 -10.5l20 1v-66q-22 -5 -54 -5q-68 0 -85 76q-28 -40 -68 -61.5t-105 -21.5q-71 0 -113 40t-42 106q0 87 70 127.5t251 40.5v28zM365 237
q-135 0 -184.5 -22t-49.5 -78q0 -37 24 -60.5t71 -23.5q62 0 100.5 40t38.5 98v46z" />
    <glyph glyph-name="b" unicode="b" horiz-adv-x="577" 
d="M298 59q72 0 109 53t37 143q0 96 -36.5 146t-103.5 50q-69 0 -108.5 -54t-39.5 -142q0 -196 142 -196zM75 730h84v-297h2q51 91 164 91q99 0 153 -71.5t54 -197.5q0 -122 -61.5 -195.5t-167.5 -73.5q-97 0 -142 75h-2v-61h-84v730z" />
    <glyph glyph-name="c" unicode="c" horiz-adv-x="509" 
d="M394 354q-24 97 -120 97q-63 0 -102 -48.5t-39 -149.5q0 -94 35 -144t100 -50q99 0 127 95h85q-20 -82 -75 -125t-137 -43q-105 0 -164 70t-59 196q0 124 60.5 198t167.5 74q96 0 143.5 -44.5t65.5 -125.5h-88z" />
    <glyph glyph-name="d" unicode="d" horiz-adv-x="577" 
d="M281 451q-72 0 -110 -50t-38 -148q0 -90 37 -142t106 -52q70 0 107.5 50t37.5 146q0 95 -36 145.5t-104 50.5zM502 0h-84v65h-2q-47 -79 -149 -79q-106 0 -164 70.5t-58 194.5t60 198.5t165 74.5q103 0 146 -79h2v285h84v-730z" />
    <glyph glyph-name="e" unicode="e" horiz-adv-x="535" 
d="M406 297q-8 156 -129 156q-60 0 -97 -41.5t-44 -114.5h270zM136 229q5 -82 43 -125.5t104 -43.5q97 0 124 76h87q-22 -75 -79 -112.5t-134 -37.5q-109 0 -172.5 72.5t-63.5 193.5q0 123 63.5 197.5t170.5 74.5q104 0 161.5 -67.5t57.5 -197.5v-30h-362z" />
    <glyph glyph-name="f" unicode="f" horiz-adv-x="296" 
d="M94 440h-88v70h88v69q0 79 46.5 116.5t118.5 37.5q28 0 70 -7v-72q-36 9 -67 9q-84 0 -84 -83v-70h130v-70h-130v-440h-84v440z" />
    <glyph glyph-name="g" unicode="g" horiz-adv-x="513" 
d="M405 471q53 -49 53 -129q0 -85 -60 -135.5t-150 -50.5q-54 0 -94 17q-31 -21 -31 -47q0 -33 31.5 -42.5t107.5 -9.5q139 0 191.5 -31.5t52.5 -106.5q0 -81 -65 -124t-188 -43q-222 0 -222 141q0 77 89 107q-73 25 -73 94q0 58 62 91q-54 50 -54 135t57 136t145 51
q48 0 97 -20q43 85 151 85v-70q-39 0 -62.5 -11t-37.5 -37zM426 -75q0 46 -42 60.5t-121 14.5h-64q-38 -5 -62 -26t-24 -53q0 -44 34.5 -63t116.5 -19q75 0 118.5 23t43.5 63zM254 227q57 0 89 30.5t32 82.5q0 54 -33 84t-84 30t-85.5 -28t-34.5 -90q0 -49 30.5 -79
t85.5 -30z" />
    <glyph glyph-name="h" unicode="h" horiz-adv-x="557" 
d="M75 730h84v-285h2q52 79 154 79q81 0 125 -51t44 -141v-332h-84v322q0 65 -31 94t-77 29q-58 0 -95.5 -36t-37.5 -97v-312h-84v730z" />
    <glyph glyph-name="i" unicode="i" horiz-adv-x="239" 
d="M70 748h99v-99h-99v99zM79 510h84v-510h-84v510z" />
    <glyph glyph-name="j" unicode="j" horiz-adv-x="239" 
d="M70 748h99v-99h-99v99zM163 -73q0 -72 -38 -115t-113 -43q-32 0 -64 8v80q32 -8 52 -8q44 0 61.5 22t17.5 67v572h84v-583z" />
    <glyph glyph-name="k" unicode="k" horiz-adv-x="506" 
d="M75 730h84v-454l217 234h115l-198 -203l207 -307h-105l-166 251l-70 -71v-180h-84v730z" />
    <glyph glyph-name="l" unicode="l" horiz-adv-x="249" 
d="M240 1q-33 -6 -53 -6q-60 0 -87 31t-27 94v610h84v-605q0 -33 13.5 -44t35.5 -11q20 0 34 4v-73z" />
    <glyph glyph-name="m" unicode="m" horiz-adv-x="833" 
d="M153 510v-65h2q47 79 143 79q98 0 137 -84h2q54 84 156 84q81 0 124.5 -49.5t43.5 -137.5v-337h-84v330q0 55 -27 85t-75 30q-50 0 -82.5 -33t-32.5 -88v-324h-84v323q0 122 -101 122q-51 0 -83.5 -35.5t-32.5 -85.5v-324h-84v510h78z" />
    <glyph glyph-name="n" unicode="n" horiz-adv-x="557" 
d="M75 510h84v-71h2q51 85 150 85q87 0 130 -52.5t43 -147.5v-324h-84v316q0 66 -30.5 97.5t-76.5 31.5q-57 0 -95.5 -40t-38.5 -103v-302h-84v510z" />
    <glyph glyph-name="o" unicode="o" horiz-adv-x="552" 
d="M276 450q-68 0 -105.5 -51t-37.5 -143q0 -196 143 -196q68 0 105.5 48.5t37.5 147.5q0 194 -143 194zM276 -14q-110 0 -170.5 69.5t-60.5 200.5q0 126 62 197t169 71q113 0 172 -70t59 -198q0 -122 -61 -196t-170 -74z" />
    <glyph glyph-name="p" unicode="p" horiz-adv-x="576" 
d="M297 59q71 0 108.5 51t37.5 147q0 90 -34.5 142t-107.5 52q-69 0 -107 -50.5t-38 -145.5q0 -102 39.5 -149t101.5 -47zM75 510h84v-65h2q53 79 154 79t158.5 -69t57.5 -194q0 -124 -60.5 -199.5t-162.5 -75.5q-104 0 -147 79h-2v-288h-84v733z" />
    <glyph glyph-name="q" unicode="q" horiz-adv-x="576" 
d="M279 451q-72 0 -109 -53t-37 -143q0 -96 36.5 -146t103.5 -50q68 0 107.5 54t39.5 142q0 196 -141 196zM501 -223h-84v300h-2q-51 -91 -163 -91q-99 0 -153 71t-54 198q0 121 60.5 195t164.5 74q100 0 145 -75h2v61h84v-733z" />
    <glyph glyph-name="r" unicode="r" horiz-adv-x="352" 
d="M75 510h84v-78h2q28 48 64.5 68t83.5 20l44 -4v-85q-26 6 -66 6q-57 0 -92.5 -45t-35.5 -113v-279h-84v510z" />
    <glyph glyph-name="s" unicode="s" horiz-adv-x="490" 
d="M127 154q2 -46 32.5 -72t87.5 -26q54 0 84 23.5t30 64.5q0 32 -25.5 49.5t-98.5 25.5q-102 12 -144 47t-42 97q0 70 52.5 115.5t141.5 45.5q178 0 193 -152h-84q-9 85 -114 85q-47 0 -75 -23t-28 -60q0 -34 24.5 -51.5t94.5 -25.5q91 -13 123.5 -28.5t52 -42.5t19.5 -73
q0 -77 -56 -122t-148 -45q-196 0 -209 168h89z" />
    <glyph glyph-name="t" unicode="t" horiz-adv-x="334" 
d="M4 510h100v148h84v-148h146v-70h-146v-290q0 -87 77 -87q40 0 70 10v-70q-44 -11 -90 -11q-141 0 -141 156v292h-100v70z" />
    <glyph glyph-name="u" unicode="u" horiz-adv-x="549" 
d="M474 0h-84v65h-2q-42 -79 -143 -79q-79 0 -125.5 47.5t-46.5 147.5v329h84v-323q0 -121 112 -121q54 0 87.5 36t33.5 95v313h84v-510z" />
    <glyph glyph-name="v" unicode="v" horiz-adv-x="461" 
d="M-5 510h89l143 -394h3l146 394h90l-204 -510h-70z" />
    <glyph glyph-name="w" unicode="w" horiz-adv-x="728" 
d="M8 510h89l107 -383h2l125 383h71l118 -383h2l115 383h83l-162 -510h-74l-120 383h-2l-126 -383h-74z" />
    <glyph glyph-name="x" unicode="x" horiz-adv-x="465" 
d="M15 510h100l118 -196l124 196h101l-172 -253l172 -257h-101l-124 202l-128 -202h-98l171 257z" />
    <glyph glyph-name="y" unicode="y" horiz-adv-x="464" 
d="M72 -229q-40 0 -64 8v75q30 -6 47 -6q32 0 54 18t39 58l38 91l-185 495h89l138 -391h3l148 391h90l-241 -601q-33 -78 -70 -108t-86 -30z" />
    <glyph glyph-name="z" unicode="z" horiz-adv-x="427" 
d="M306 440h-266v70h369v-68l-293 -372h299v-70h-400v70z" />
    <glyph glyph-name="braceleft" unicode="{" horiz-adv-x="352" 
d="M337 750h-61q-42 0 -62 -20t-20 -71v-184q0 -124 -105 -144q51 -9 78 -42t27 -103v-183q0 -51 21 -71t61 -20h61v-64h-87q-60 0 -95 36.5t-35 99.5v196q0 62 -26.5 85.5t-86.5 23.5v84q65 0 89 25.5t24 82.5v197q0 63 36 99.5t94 36.5h87v-64z" />
    <glyph glyph-name="bar" unicode="|" horiz-adv-x="212" 
d="M71 786h70v-1000h-70v1000z" />
    <glyph glyph-name="braceright" unicode="}" horiz-adv-x="352" 
d="M15 814h87q60 0 95 -36.5t35 -99.5v-196q0 -62 26.5 -85.5t86.5 -23.5v-84q-65 0 -89 -25.5t-24 -82.5v-197q0 -63 -36 -99.5t-94 -36.5h-87v64h61q42 0 62 20t20 71v184q0 124 105 144q-51 9 -78 42t-27 103v183q0 51 -21 71t-61 20h-61v64z" />
    <glyph glyph-name="asciitilde" unicode="~" 
d="M165 364q51 0 124 -40q59 -32 85 -32q58 0 70 67h68q-7 -68 -42.5 -102.5t-88.5 -34.5q-38 0 -67 12t-58 27q-63 33 -88 33q-54 0 -67 -68h-68q8 67 43.5 102.5t88.5 35.5z" />
    <glyph glyph-name="uni00A0" unicode="&#xa0;" horiz-adv-x="278" 
 />
    <glyph glyph-name="exclamdown" unicode="&#xa1;" horiz-adv-x="298" 
d="M193 416h-88v94h88v-94zM190 53v-255h-82v255l15 273h52z" />
    <glyph glyph-name="cent" unicode="&#xa2;" 
d="M251 34q-95 10 -147 81.5t-52 187.5q0 111 52.5 183.5t146.5 84.5v139h64v-139q81 -8 122.5 -53t58.5 -120h-83q-8 40 -34 67t-64 33v-389q36 8 62.5 34.5t35.5 66.5h81q-18 -73 -64.5 -118.5t-114.5 -56.5v-158h-64v157zM251 497q-51 -10 -82.5 -58t-31.5 -135
q0 -82 30.5 -133t83.5 -62v388z" />
    <glyph glyph-name="sterling" unicode="&#xa3;" 
d="M34 380h77q-7 35 -13.5 63.5t-6.5 66.5q0 97 56.5 156.5t156.5 59.5q93 0 148.5 -51.5t62.5 -150.5h-86q-14 125 -125 125q-61 0 -93 -36.5t-32 -102.5q0 -44 13 -98l6 -32h199v-78h-182q6 -36 6 -72q0 -106 -67 -148h358v-82h-481v82q105 15 105 145q0 26 -9 75h-93v78z
" />
    <glyph glyph-name="currency" unicode="&#xa4;" 
d="M273 525q-80 0 -129.5 -52t-49.5 -133q0 -83 50 -134t129 -51q78 0 128.5 50.5t50.5 134.5q0 82 -50 133.5t-129 51.5zM124 541q55 48 149 48t149 -48l54 53l51 -48l-55 -54q50 -65 50 -152t-50 -152l55 -54l-51 -48l-54 53q-55 -48 -149 -48t-149 48l-54 -53l-51 48
l55 54q-50 65 -50 152t50 152l-55 54l51 48z" />
    <glyph glyph-name="yen" unicode="&#xa5;" 
d="M232 0v145h-146v58h146v117h-146v58h146v6l-228 328h100l169 -249l169 249h100l-228 -329v-5h146v-58h-146v-117h146v-58h-146v-145h-82z" />
    <glyph glyph-name="brokenbar" unicode="&#xa6;" horiz-adv-x="212" 
d="M71 786h70v-416h-70v416zM71 202h70v-416h-70v416z" />
    <glyph glyph-name="section" unicode="&#xa7;" horiz-adv-x="513" 
d="M373 537q-8 61 -36 87t-76 26t-76.5 -26.5t-28.5 -73.5q0 -46 35.5 -76.5t118.5 -57.5q79 -28 116 -66t37 -99q0 -76 -60 -129q34 -42 34 -105q0 -77 -50 -123t-134 -46q-174 0 -188 181h76q8 -61 36 -87t76 -26t76.5 26.5t28.5 73.5t-35.5 76.5t-117.5 58.5
q-80 27 -117 65t-37 99q0 76 60 129q-34 43 -34 105q0 77 50 123t134 46q174 0 188 -181h-76zM162 401q-33 -33 -33 -80q0 -36 22 -57t55.5 -36t72.5 -29t73 -35q33 33 33 81q0 35 -22 56t-55.5 36.5t-72.5 29t-73 34.5z" />
    <glyph glyph-name="dieresis" unicode="&#xa8;" horiz-adv-x="352" 
d="M224 706h100v-100h-100v100zM27 706h100v-100h-100v100z" />
    <glyph glyph-name="copyright" unicode="&#xa9;" horiz-adv-x="790" 
d="M88 356q0 -83 42 -156t113.5 -115t151.5 -42q81 0 152.5 42t113 115.5t41.5 155.5q0 83 -42 156t-113.5 115t-151.5 42q-81 0 -152.5 -42t-113 -115.5t-41.5 -155.5zM765 356q0 -99 -49.5 -185t-135 -135.5t-185.5 -49.5q-99 0 -185 49.5t-135.5 135t-49.5 185.5
q0 99 49.5 185t135 135.5t185.5 49.5q99 0 185 -49.5t135.5 -135t49.5 -185.5zM517 433q-11 40 -41 63t-77 23q-59 0 -98 -40t-39 -123q0 -78 37.5 -119.5t96.5 -41.5q47 0 78.5 23.5t43.5 61.5h72q-18 -69 -70 -107t-127 -38q-99 0 -153 58.5t-54 161.5t57.5 163.5
t154.5 60.5q160 0 194 -146h-75z" />
    <glyph glyph-name="ordfeminine" unicode="&#xaa;" horiz-adv-x="334" 
d="M224 597q0 69 -61 69q-58 0 -60 -54h-63q4 44 34 75t91 31q120 0 120 -118v-123q0 -20 6.5 -26t19.5 -6l12 1v-39q-24 -6 -37 -6q-46 0 -57 45q-17 -23 -38 -35.5t-58 -12.5q-48 0 -74 24.5t-26 64.5q0 55 41 80t150 25v5zM224 545q-58 0 -91.5 -10t-33.5 -42
q0 -43 53 -43q39 0 55.5 24.5t16.5 58.5v12z" />
    <glyph glyph-name="guillemotleft" unicode="&#xab;" horiz-adv-x="388" 
d="M338 103l-129 134v94l129 133v-100l-79 -80l79 -81v-100zM179 103l-129 134v94l129 133v-100l-79 -80l79 -81v-100z" />
    <glyph glyph-name="logicalnot" unicode="&#xac;" 
d="M426 357h-376v70h446v-269h-70v199z" />
    <glyph glyph-name="uni00AD" unicode="&#xad;" horiz-adv-x="450" 
d="M60 217v76h330v-76h-330z" />
    <glyph glyph-name="registered" unicode="&#xae;" horiz-adv-x="790" 
d="M88 356q0 -83 42 -156t113.5 -115t151.5 -42q81 0 152.5 42t113 115.5t41.5 155.5q0 83 -42 156t-113.5 115t-151.5 42q-81 0 -152.5 -42t-113 -115.5t-41.5 -155.5zM765 356q0 -99 -49.5 -185t-135 -135.5t-185.5 -49.5q-99 0 -185 49.5t-135.5 135t-49.5 185.5
q0 99 49.5 185t135 135.5t185.5 49.5q99 0 185 -49.5t135.5 -135t49.5 -185.5zM252 565h186q70 0 105.5 -32t35.5 -90q0 -49 -29 -82.5t-82 -41.5l112 -173h-83l-105 170h-70v-170h-70v419zM322 377h97q44 0 66.5 15.5t22.5 52.5q0 61 -87 61h-99v-129z" />
    <glyph glyph-name="macron" unicode="&#xaf;" horiz-adv-x="194" 
d="M-40 680h274v-58h-274v58z" />
    <glyph glyph-name="degree" unicode="&#xb0;" horiz-adv-x="346" 
d="M173 427q-60 0 -101.5 42t-41.5 101q0 60 42 101.5t101 41.5q60 0 101.5 -42t41.5 -101q0 -60 -42 -101.5t-101 -41.5zM173 661q-34 0 -62.5 -28.5t-28.5 -62.5t28.5 -62.5t62.5 -28.5t62.5 28.5t28.5 62.5t-28.5 62.5t-62.5 28.5z" />
    <glyph glyph-name="plusminus" unicode="&#xb1;" 
d="M50 95h446v-70h-446v70zM238 329h-188v70h188v187h70v-187h188v-70h-188v-186h-70v186z" />
    <glyph glyph-name="twosuperior" unicode="&#xb2;" horiz-adv-x="351" 
d="M43 360l116 108q60 55 76 77.5t16 47.5q0 32 -18.5 49.5t-52.5 17.5q-38 0 -57.5 -24t-21.5 -62h-63q2 66 41 105t104 39t101.5 -31t36.5 -87q0 -37 -22 -72t-75 -82l-96 -84h196v-65h-281v63z" />
    <glyph glyph-name="threesuperior" unicode="&#xb3;" horiz-adv-x="351" 
d="M161 539q78 0 78 62q0 23 -15 42t-50 19q-73 0 -77 -77h-64q1 60 38.5 96.5t103.5 36.5q69 0 101.5 -32t32.5 -77q0 -28 -18.5 -55.5t-51.5 -38.5v-1q81 -21 81 -98q0 -51 -39.5 -87.5t-103.5 -36.5q-68 0 -107.5 34.5t-41.5 99.5h66q2 -33 22 -54t60 -21q39 0 56.5 21.5
t17.5 47.5q0 64 -93 64h-27v55h31z" />
    <glyph glyph-name="acute" unicode="&#xb4;" horiz-adv-x="352" 
d="M179 572h-88l101 146h105z" />
    <glyph glyph-name="uni00B5" unicode="&#xb5;" horiz-adv-x="545" 
d="M474 106q0 -46 38 -46q18 0 46 10v-68q-44 -14 -80 -14q-35 0 -60 18t-27 56h-2q-21 -36 -51 -55t-78 -19q-31 0 -59.5 11.5t-45.5 32.5v-256h-82v734h84v-326q0 -54 27.5 -86t84.5 -32q55 0 88 36t33 91v317h84v-404z" />
    <glyph glyph-name="paragraph" unicode="&#xb6;" horiz-adv-x="590" 
d="M266 332q-95 0 -151 50t-56 134q0 95 59.5 145.5t163.5 50.5h228v-875h-58v818h-128v-818h-58v495zM266 655q-70 0 -108 -36.5t-38 -101.5q0 -64 40 -96t106 -32v266z" />
    <glyph glyph-name="periodcentered" unicode="&#xb7;" horiz-adv-x="268" 
d="M191 251h-113v113h113v-113z" />
    <glyph glyph-name="cedilla" unicode="&#xb8;" horiz-adv-x="352" 
d="M62 -145q44 -18 87 -18q51 0 51 37q0 33 -54 33l-40 -3l-10 21l46 75h47l-28 -53l2 -1l32 3q45 0 63 -25t18 -56q0 -38 -31 -65.5t-89 -27.5q-46 0 -94 19v61z" />
    <glyph glyph-name="onesuperior" unicode="&#xb9;" horiz-adv-x="351" 
d="M168 640l-111 -54v66l137 66h39v-421h-65v343z" />
    <glyph glyph-name="ordmasculine" unicode="&#xba;" horiz-adv-x="364" 
d="M181 661q-35 0 -56.5 -27t-21.5 -76q0 -51 20.5 -77.5t57.5 -26.5q38 0 59 26t21 78t-21.5 77.5t-58.5 25.5zM182 397q-71 0 -109 42.5t-38 118.5q0 75 39.5 117.5t107.5 42.5q71 0 109 -41t38 -119q0 -74 -40 -117.5t-107 -43.5z" />
    <glyph glyph-name="guillemotright" unicode="&#xbb;" horiz-adv-x="388" 
d="M50 464l129 -134v-94l-129 -133v100l79 80l-79 81v100zM209 464l129 -134v-94l-129 -133v100l79 80l-79 81v100z" />
    <glyph glyph-name="onequarter" unicode="&#xbc;" horiz-adv-x="776" 
d="M168 640l-111 -54v66l137 66h39v-421h-65v343zM599 421h69l-171 -273h124v140h65v-140h51v-58h-51v-90h-65v90h-190v62zM567 712h76l-444 -712h-76z" />
    <glyph glyph-name="onehalf" unicode="&#xbd;" horiz-adv-x="816" 
d="M168 640l-111 -54v66l137 66h39v-421h-65v343zM484 63l116 108q60 55 76 77.5t16 47.5q0 32 -18.5 49.5t-52.5 17.5q-38 0 -57.5 -24t-21.5 -62h-63q2 66 41 105t104 39t101.5 -31t36.5 -87q0 -37 -22 -72t-75 -82l-96 -84h196v-65h-281v63zM567 712h76l-444 -712h-76z
" />
    <glyph glyph-name="threequarters" unicode="&#xbe;" horiz-adv-x="856" 
d="M183 539q78 0 78 62q0 23 -15 42t-50 19q-73 0 -77 -77h-64q1 60 38.5 96.5t103.5 36.5q69 0 101.5 -32t32.5 -77q0 -28 -18.5 -55.5t-51.5 -38.5v-1q81 -21 81 -98q0 -51 -39.5 -87.5t-103.5 -36.5q-68 0 -107.5 34.5t-41.5 99.5h66q2 -33 22 -54t60 -21q39 0 56.5 21.5
t17.5 47.5q0 64 -93 64h-27v55h31zM649 712h76l-444 -712h-76zM681 421h69l-171 -273h124v140h65v-140h51v-58h-51v-90h-65v90h-190v62z" />
    <glyph glyph-name="questiondown" unicode="&#xbf;" horiz-adv-x="502" 
d="M462 -15q-7 -93 -64.5 -147t-156.5 -54q-94 0 -148.5 51.5t-54.5 136.5q0 101 90 183q47 43 68 72t21 59v34h82v-45q0 -37 -19.5 -69.5t-68.5 -75.5q-45 -39 -66.5 -75.5t-21.5 -79.5q0 -54 32.5 -85.5t85.5 -31.5q125 0 140 127h81zM202 510h113v-113h-113v113z" />
    <glyph glyph-name="Agrave" unicode="&#xc0;" horiz-adv-x="626" 
d="M320 595h-2l-125 -330h243zM281 712h81l267 -712h-95l-68 188h-303l-72 -188h-94zM178 915h105l101 -146h-88z" />
    <glyph glyph-name="Aacute" unicode="&#xc1;" horiz-adv-x="626" 
d="M320 595h-2l-125 -330h243zM281 712h81l267 -712h-95l-68 188h-303l-72 -188h-94zM356 769h-88l101 146h105z" />
    <glyph glyph-name="Acircumflex" unicode="&#xc2;" horiz-adv-x="626" 
d="M320 595h-2l-125 -330h243zM281 712h81l267 -712h-95l-68 188h-303l-72 -188h-94zM328 863l-74 -89h-80l107 146h94l106 -146h-83z" />
    <glyph glyph-name="Atilde" unicode="&#xc3;" horiz-adv-x="626" 
d="M320 595h-2l-125 -330h243zM281 712h81l267 -712h-95l-68 188h-303l-72 -188h-94zM142 775q7 54 36.5 84t72.5 30q40 0 75 -26q31 -23 52 -23q37 0 44 49h62q-11 -113 -104 -113q-40 0 -76 26q-32 22 -53 22q-39 0 -49 -49h-60z" />
    <glyph glyph-name="Adieresis" unicode="&#xc4;" horiz-adv-x="626" 
d="M320 595h-2l-125 -330h243zM281 712h81l267 -712h-95l-68 188h-303l-72 -188h-94zM373 903h100v-100h-100v100zM176 903h100v-100h-100v100z" />
    <glyph glyph-name="Aring" unicode="&#xc5;" horiz-adv-x="626" 
d="M320 595h-2l-125 -330h243zM281 712h81l267 -712h-95l-68 188h-303l-72 -188h-94zM320 747q-40 0 -69.5 28.5t-29.5 70.5t28.5 71t70.5 29q41 0 70.5 -29.5t29.5 -70.5q0 -40 -30 -69.5t-70 -29.5zM320 900q-23 0 -38.5 -15.5t-15.5 -38.5t15.5 -38.5t38.5 -15.5
t38.5 15.5t15.5 38.5t-15.5 38.5t-38.5 15.5z" />
    <glyph glyph-name="AE" unicode="&#xc6;" horiz-adv-x="1017" 
d="M304 311h210v307h-7zM514 234h-258l-155 -234h-106l483 712h489v-81h-366v-234h343v-81h-343v-235h376v-81h-463v234z" />
    <glyph glyph-name="Ccedilla" unicode="&#xc7;" horiz-adv-x="659" 
d="M626 220q-40 -234 -286 -234q-88 0 -145 35.5t-95.5 117.5t-38.5 217q0 128 39.5 211t103.5 121t160 38q233 0 265 -231h-92q-23 149 -173 149q-108 0 -159 -73t-51 -220q0 -95 24.5 -160.5t63.5 -94.5t107 -29q82 0 130 39t58 114h89zM248 -145q44 -18 87 -18
q51 0 51 37q0 33 -54 33l-40 -3l-10 21l46 75h47l-28 -53l2 -1l32 3q45 0 63 -25t18 -56q0 -38 -31 -65.5t-89 -27.5q-46 0 -94 19v61z" />
    <glyph glyph-name="Egrave" unicode="&#xc8;" horiz-adv-x="576" 
d="M83 712h443v-81h-356v-234h333v-81h-333v-235h366v-81h-453v712zM169 915h105l101 -146h-88z" />
    <glyph glyph-name="Eacute" unicode="&#xc9;" horiz-adv-x="576" 
d="M83 712h443v-81h-356v-234h333v-81h-333v-235h366v-81h-453v712zM351 769h-88l101 146h105z" />
    <glyph glyph-name="Ecircumflex" unicode="&#xca;" horiz-adv-x="576" 
d="M83 712h443v-81h-356v-234h333v-81h-333v-235h366v-81h-453v712zM303 863l-74 -89h-80l107 146h94l106 -146h-83z" />
    <glyph glyph-name="Edieresis" unicode="&#xcb;" horiz-adv-x="576" 
d="M83 712h443v-81h-356v-234h333v-81h-333v-235h366v-81h-453v712zM361 903h100v-100h-100v100zM164 903h100v-100h-100v100z" />
    <glyph glyph-name="Igrave" unicode="&#xcc;" horiz-adv-x="253" 
d="M170 0h-87v712h87v-712zM-26 915h105l101 -146h-88z" />
    <glyph glyph-name="Iacute" unicode="&#xcd;" horiz-adv-x="253" 
d="M170 0h-87v712h87v-712zM164 769h-88l101 146h105z" />
    <glyph glyph-name="Icircumflex" unicode="&#xce;" horiz-adv-x="253" 
d="M170 0h-87v712h87v-712zM127 863l-74 -89h-80l107 146h94l106 -146h-83z" />
    <glyph glyph-name="Idieresis" unicode="&#xcf;" horiz-adv-x="253" 
d="M170 0h-87v712h87v-712zM175 903h100v-100h-100v100zM-22 903h100v-100h-100v100z" />
    <glyph glyph-name="Eth" unicode="&#xd0;" horiz-adv-x="704" 
d="M-4 394h87v318h254q101 0 168.5 -37t102.5 -112.5t35 -210.5t-41.5 -212t-113 -108.5t-177.5 -31.5h-228v318h-87v76zM307 81q84 0 133.5 24t79 80.5t29.5 175.5q0 149 -58 209.5t-167 60.5h-154v-237h168v-76h-168v-237h137z" />
    <glyph glyph-name="Ntilde" unicode="&#xd1;" horiz-adv-x="713" 
d="M83 712h87l378 -568h2v568h80v-712h-86l-379 567h-2v-567h-80v712zM188 775q7 54 36.5 84t72.5 30q40 0 75 -26q31 -23 52 -23q37 0 44 49h62q-11 -113 -104 -113q-40 0 -76 26q-32 22 -53 22q-39 0 -49 -49h-60z" />
    <glyph glyph-name="Ograve" unicode="&#xd2;" horiz-adv-x="706" 
d="M154 356q0 -104 14 -151t39 -78.5t61.5 -45.5t84.5 -14q67 0 111 29t66 87.5t22 171.5q0 121 -21.5 177.5t-66 86.5t-111.5 30q-45 0 -85 -18.5t-64 -49t-37 -76t-13 -149.5zM61 356q0 117 21 180t58 104t90.5 63.5t122.5 22.5q96 0 161 -37.5t98 -114t33 -219.5
q0 -129 -37 -211t-101.5 -120t-153.5 -38q-70 0 -121.5 19.5t-89.5 61.5t-59 105t-22 184zM211 915h105l101 -146h-88z" />
    <glyph glyph-name="Oacute" unicode="&#xd3;" horiz-adv-x="706" 
d="M154 356q0 -104 14 -151t39 -78.5t61.5 -45.5t84.5 -14q67 0 111 29t66 87.5t22 171.5q0 121 -21.5 177.5t-66 86.5t-111.5 30q-45 0 -85 -18.5t-64 -49t-37 -76t-13 -149.5zM61 356q0 117 21 180t58 104t90.5 63.5t122.5 22.5q96 0 161 -37.5t98 -114t33 -219.5
q0 -129 -37 -211t-101.5 -120t-153.5 -38q-70 0 -121.5 19.5t-89.5 61.5t-59 105t-22 184zM388 769h-88l101 146h105z" />
    <glyph glyph-name="Ocircumflex" unicode="&#xd4;" horiz-adv-x="706" 
d="M154 356q0 -104 14 -151t39 -78.5t61.5 -45.5t84.5 -14q67 0 111 29t66 87.5t22 171.5q0 121 -21.5 177.5t-66 86.5t-111.5 30q-45 0 -85 -18.5t-64 -49t-37 -76t-13 -149.5zM61 356q0 117 21 180t58 104t90.5 63.5t122.5 22.5q96 0 161 -37.5t98 -114t33 -219.5
q0 -129 -37 -211t-101.5 -120t-153.5 -38q-70 0 -121.5 19.5t-89.5 61.5t-59 105t-22 184zM356 863l-74 -89h-80l107 146h94l106 -146h-83z" />
    <glyph glyph-name="Otilde" unicode="&#xd5;" horiz-adv-x="706" 
d="M154 356q0 -104 14 -151t39 -78.5t61.5 -45.5t84.5 -14q67 0 111 29t66 87.5t22 171.5q0 121 -21.5 177.5t-66 86.5t-111.5 30q-45 0 -85 -18.5t-64 -49t-37 -76t-13 -149.5zM61 356q0 117 21 180t58 104t90.5 63.5t122.5 22.5q96 0 161 -37.5t98 -114t33 -219.5
q0 -129 -37 -211t-101.5 -120t-153.5 -38q-70 0 -121.5 19.5t-89.5 61.5t-59 105t-22 184zM178 775q7 54 36.5 84t72.5 30q40 0 75 -26q31 -23 52 -23q37 0 44 49h62q-11 -113 -104 -113q-40 0 -76 26q-32 22 -53 22q-39 0 -49 -49h-60z" />
    <glyph glyph-name="Odieresis" unicode="&#xd6;" horiz-adv-x="706" 
d="M154 356q0 -104 14 -151t39 -78.5t61.5 -45.5t84.5 -14q67 0 111 29t66 87.5t22 171.5q0 121 -21.5 177.5t-66 86.5t-111.5 30q-45 0 -85 -18.5t-64 -49t-37 -76t-13 -149.5zM61 356q0 117 21 180t58 104t90.5 63.5t122.5 22.5q96 0 161 -37.5t98 -114t33 -219.5
q0 -129 -37 -211t-101.5 -120t-153.5 -38q-70 0 -121.5 19.5t-89.5 61.5t-59 105t-22 184zM402 903h100v-100h-100v100zM205 903h100v-100h-100v100z" />
    <glyph glyph-name="multiply" unicode="&#xd7;" 
d="M273 244l-161 -162l-50 49l162 162l-162 162l50 49l161 -161l162 161l49 -49l-161 -162l161 -162l-49 -49z" />
    <glyph glyph-name="Oslash" unicode="&#xd8;" horiz-adv-x="706" 
d="M61 356q0 117 20.5 179.5t57.5 103.5t90.5 64t123.5 23q121 0 191 -58l72 98l53 -36l-82 -110q31 -45 44.5 -105.5t13.5 -159.5q0 -128 -35.5 -209t-98.5 -120.5t-158 -39.5q-125 0 -195 64l-76 -106l-53 39l87 117q-29 48 -42 101.5t-13 154.5zM528 540l-317 -420
q45 -53 142 -53q68 0 111.5 27.5t65.5 87.5t22 173q0 129 -24 185zM154 356q0 -132 22 -176l315 417q-51 52 -138 52q-47 0 -84.5 -17t-63.5 -49.5t-38.5 -78t-12.5 -148.5z" />
    <glyph glyph-name="Ugrave" unicode="&#xd9;" horiz-adv-x="695" 
d="M617 273q0 -135 -72.5 -211t-197.5 -76q-129 0 -199 72.5t-70 204.5v449h87v-440q0 -110 47.5 -158t135.5 -48t135 55t47 154v437h87v-439zM203 915h105l101 -146h-88z" />
    <glyph glyph-name="Uacute" unicode="&#xda;" horiz-adv-x="695" 
d="M617 273q0 -135 -72.5 -211t-197.5 -76q-129 0 -199 72.5t-70 204.5v449h87v-440q0 -110 47.5 -158t135.5 -48t135 55t47 154v437h87v-439zM395 769h-88l101 146h105z" />
    <glyph glyph-name="Ucircumflex" unicode="&#xdb;" horiz-adv-x="695" 
d="M617 273q0 -135 -72.5 -211t-197.5 -76q-129 0 -199 72.5t-70 204.5v449h87v-440q0 -110 47.5 -158t135.5 -48t135 55t47 154v437h87v-439zM348 863l-74 -89h-80l107 146h94l106 -146h-83z" />
    <glyph glyph-name="Udieresis" unicode="&#xdc;" horiz-adv-x="695" 
d="M617 273q0 -135 -72.5 -211t-197.5 -76q-129 0 -199 72.5t-70 204.5v449h87v-440q0 -110 47.5 -158t135.5 -48t135 55t47 154v437h87v-439zM392 903h100v-100h-100v100zM195 903h100v-100h-100v100z" />
    <glyph glyph-name="Yacute" unicode="&#xdd;" horiz-adv-x="569" 
d="M241 286l-246 426h102l187 -344l188 344h102l-246 -426v-286h-87v286zM326 769h-88l101 146h105z" />
    <glyph glyph-name="Thorn" unicode="&#xde;" horiz-adv-x="607" 
d="M170 237h183q72 0 113 33.5t41 98.5t-43 93t-109 28h-185v-253zM170 158v-158h-87v712h87v-142h196q112 0 171.5 -53t59.5 -148q0 -93 -63.5 -152t-165.5 -59h-198z" />
    <glyph glyph-name="germandbls" unicode="&#xdf;" horiz-adv-x="567" 
d="M75 510q0 108 57 169t160 61q91 0 144 -50t53 -130q0 -69 -36 -115.5t-97 -58.5v-2q176 -28 176 -203q0 -86 -53.5 -140.5t-135.5 -54.5q-69 0 -109 30t-58 100h83q18 -59 84 -59q44 0 72.5 34.5t28.5 94.5q0 151 -193 151h-37v79h25q75 0 118.5 35.5t43.5 100.5
q0 58 -31.5 87.5t-79.5 29.5q-64 0 -97.5 -41.5t-33.5 -117.5v-510h-84v510z" />
    <glyph glyph-name="agrave" unicode="&#xe0;" horiz-adv-x="537" 
d="M365 328q0 127 -109 127q-104 0 -117 -95h-77q8 82 62.5 123t136.5 41q186 0 186 -197v-210q0 -33 10.5 -43.5t33.5 -10.5l20 1v-66q-22 -5 -54 -5q-68 0 -85 76q-28 -40 -68 -61.5t-105 -21.5q-71 0 -113 40t-42 106q0 87 70 127.5t251 40.5v28zM365 237
q-135 0 -184.5 -22t-49.5 -78q0 -37 24 -60.5t71 -23.5q62 0 100.5 40t38.5 98v46zM124 718h105l101 -146h-88z" />
    <glyph glyph-name="aacute" unicode="&#xe1;" horiz-adv-x="537" 
d="M365 328q0 127 -109 127q-104 0 -117 -95h-77q8 82 62.5 123t136.5 41q186 0 186 -197v-210q0 -33 10.5 -43.5t33.5 -10.5l20 1v-66q-22 -5 -54 -5q-68 0 -85 76q-28 -40 -68 -61.5t-105 -21.5q-71 0 -113 40t-42 106q0 87 70 127.5t251 40.5v28zM365 237
q-135 0 -184.5 -22t-49.5 -78q0 -37 24 -60.5t71 -23.5q62 0 100.5 40t38.5 98v46zM291 572h-88l101 146h105z" />
    <glyph glyph-name="acircumflex" unicode="&#xe2;" horiz-adv-x="537" 
d="M365 328q0 127 -109 127q-104 0 -117 -95h-77q8 82 62.5 123t136.5 41q186 0 186 -197v-210q0 -33 10.5 -43.5t33.5 -10.5l20 1v-66q-22 -5 -54 -5q-68 0 -85 76q-28 -40 -68 -61.5t-105 -21.5q-71 0 -113 40t-42 106q0 87 70 127.5t251 40.5v28zM365 237
q-135 0 -184.5 -22t-49.5 -78q0 -37 24 -60.5t71 -23.5q62 0 100.5 40t38.5 98v46zM264 661l-74 -89h-80l107 146h94l106 -146h-83z" />
    <glyph glyph-name="atilde" unicode="&#xe3;" horiz-adv-x="537" 
d="M365 328q0 127 -109 127q-104 0 -117 -95h-77q8 82 62.5 123t136.5 41q186 0 186 -197v-210q0 -33 10.5 -43.5t33.5 -10.5l20 1v-66q-22 -5 -54 -5q-68 0 -85 76q-28 -40 -68 -61.5t-105 -21.5q-71 0 -113 40t-42 106q0 87 70 127.5t251 40.5v28zM365 237
q-135 0 -184.5 -22t-49.5 -78q0 -37 24 -60.5t71 -23.5q62 0 100.5 40t38.5 98v46zM89 573q7 54 36.5 84t72.5 30q40 0 75 -26q31 -23 52 -23q37 0 44 49h62q-11 -113 -104 -113q-40 0 -76 26q-32 22 -53 22q-39 0 -49 -49h-60z" />
    <glyph glyph-name="adieresis" unicode="&#xe4;" horiz-adv-x="537" 
d="M365 328q0 127 -109 127q-104 0 -117 -95h-77q8 82 62.5 123t136.5 41q186 0 186 -197v-210q0 -33 10.5 -43.5t33.5 -10.5l20 1v-66q-22 -5 -54 -5q-68 0 -85 76q-28 -40 -68 -61.5t-105 -21.5q-71 0 -113 40t-42 106q0 87 70 127.5t251 40.5v28zM365 237
q-135 0 -184.5 -22t-49.5 -78q0 -37 24 -60.5t71 -23.5q62 0 100.5 40t38.5 98v46zM312 706h100v-100h-100v100zM115 706h100v-100h-100v100z" />
    <glyph glyph-name="aring" unicode="&#xe5;" horiz-adv-x="537" 
d="M365 328q0 127 -109 127q-104 0 -117 -95h-77q8 82 62.5 123t136.5 41q186 0 186 -197v-210q0 -33 10.5 -43.5t33.5 -10.5l20 1v-66q-22 -5 -54 -5q-68 0 -85 76q-28 -40 -68 -61.5t-105 -21.5q-71 0 -113 40t-42 106q0 87 70 127.5t251 40.5v28zM365 237
q-135 0 -184.5 -22t-49.5 -78q0 -37 24 -60.5t71 -23.5q62 0 100.5 40t38.5 98v46zM263 545q-40 0 -69.5 28.5t-29.5 70.5t28.5 71t70.5 29q41 0 70.5 -29.5t29.5 -70.5q0 -40 -30 -69.5t-70 -29.5zM263 698q-23 0 -38.5 -15.5t-15.5 -38.5t15.5 -38.5t38.5 -15.5t38.5 15.5
t15.5 38.5t-15.5 38.5t-38.5 15.5z" />
    <glyph glyph-name="ae" unicode="&#xe6;" horiz-adv-x="843" 
d="M444 229q2 -78 37.5 -123.5t104.5 -45.5q55 0 85 22.5t44 69.5h87q-20 -82 -78.5 -124t-140.5 -42q-122 0 -183 101q-32 -55 -77.5 -78t-110.5 -23q-77 0 -122.5 39.5t-45.5 110.5q0 59 28.5 95t92.5 54t199 18v25q0 127 -108 127q-111 0 -117 -101h-77q7 84 62 127
t137 43q114 0 158 -80q63 80 169 80q218 0 218 -265v-30h-362zM364 240q-106 0 -148.5 -9.5t-63.5 -31t-21 -58.5q0 -38 22.5 -63t71.5 -25q65 0 102 38t37 110v39zM714 297q-4 74 -33.5 115t-96.5 41q-69 0 -102.5 -44t-37.5 -112h270z" />
    <glyph glyph-name="ccedilla" unicode="&#xe7;" horiz-adv-x="509" 
d="M394 354q-24 97 -120 97q-63 0 -102 -48.5t-39 -149.5q0 -94 35 -144t100 -50q99 0 127 95h85q-20 -82 -75 -125t-137 -43q-105 0 -164 70t-59 196q0 124 60.5 198t167.5 74q96 0 143.5 -44.5t65.5 -125.5h-88zM161 -145q44 -18 87 -18q51 0 51 37q0 33 -54 33l-40 -3
l-10 21l46 75h47l-28 -53l2 -1l32 3q45 0 63 -25t18 -56q0 -38 -31 -65.5t-89 -27.5q-46 0 -94 19v61z" />
    <glyph glyph-name="egrave" unicode="&#xe8;" horiz-adv-x="535" 
d="M406 297q-8 156 -129 156q-60 0 -97 -41.5t-44 -114.5h270zM136 229q5 -82 43 -125.5t104 -43.5q97 0 124 76h87q-22 -75 -79 -112.5t-134 -37.5q-109 0 -172.5 72.5t-63.5 193.5q0 123 63.5 197.5t170.5 74.5q104 0 161.5 -67.5t57.5 -197.5v-30h-362zM127 718h105
l101 -146h-88z" />
    <glyph glyph-name="eacute" unicode="&#xe9;" horiz-adv-x="535" 
d="M406 297q-8 156 -129 156q-60 0 -97 -41.5t-44 -114.5h270zM136 229q5 -82 43 -125.5t104 -43.5q97 0 124 76h87q-22 -75 -79 -112.5t-134 -37.5q-109 0 -172.5 72.5t-63.5 193.5q0 123 63.5 197.5t170.5 74.5q104 0 161.5 -67.5t57.5 -197.5v-30h-362zM312 572h-88
l101 146h105z" />
    <glyph glyph-name="ecircumflex" unicode="&#xea;" horiz-adv-x="535" 
d="M406 297q-8 156 -129 156q-60 0 -97 -41.5t-44 -114.5h270zM136 229q5 -82 43 -125.5t104 -43.5q97 0 124 76h87q-22 -75 -79 -112.5t-134 -37.5q-109 0 -172.5 72.5t-63.5 193.5q0 123 63.5 197.5t170.5 74.5q104 0 161.5 -67.5t57.5 -197.5v-30h-362zM279 661l-74 -89
h-80l107 146h94l106 -146h-83z" />
    <glyph glyph-name="edieresis" unicode="&#xeb;" horiz-adv-x="535" 
d="M406 297q-8 156 -129 156q-60 0 -97 -41.5t-44 -114.5h270zM136 229q5 -82 43 -125.5t104 -43.5q97 0 124 76h87q-22 -75 -79 -112.5t-134 -37.5q-109 0 -172.5 72.5t-63.5 193.5q0 123 63.5 197.5t170.5 74.5q104 0 161.5 -67.5t57.5 -197.5v-30h-362zM324 706h100v-100
h-100v100zM127 706h100v-100h-100v100z" />
    <glyph glyph-name="igrave" unicode="&#xec;" horiz-adv-x="239" 
d="M79 510h84v-510h-84v510zM-27 718h105l101 -146h-88z" />
    <glyph glyph-name="iacute" unicode="&#xed;" horiz-adv-x="239" 
d="M79 510h84v-510h-84v510zM154 572h-88l101 146h105z" />
    <glyph glyph-name="icircumflex" unicode="&#xee;" horiz-adv-x="239" 
d="M79 510h84v-510h-84v510zM120 661l-74 -89h-80l107 146h94l106 -146h-83z" />
    <glyph glyph-name="idieresis" unicode="&#xef;" horiz-adv-x="239" 
d="M79 510h84v-510h-84v510zM168 706h100v-100h-100v100zM-29 706h100v-100h-100v100z" />
    <glyph glyph-name="eth" unicode="&#xf0;" horiz-adv-x="560" 
d="M280 59q69 0 106.5 46.5t37.5 133.5q0 90 -37.5 134.5t-104.5 44.5q-69 0 -109 -46.5t-40 -132.5q0 -84 38.5 -132t108.5 -48zM140 558l94 68q-41 27 -102 44l31 69q28 -6 74 -27t65 -34l96 74l30 -39l-85 -65q170 -143 170 -378q0 -131 -62 -207.5t-172 -76.5t-172 68
t-62 185q0 114 61 182.5t164 68.5q42 0 75 -14t51 -34h2q-35 94 -122 156l-102 -76z" />
    <glyph glyph-name="ntilde" unicode="&#xf1;" horiz-adv-x="557" 
d="M75 510h84v-71h2q51 85 150 85q87 0 130 -52.5t43 -147.5v-324h-84v316q0 66 -30.5 97.5t-76.5 31.5q-57 0 -95.5 -40t-38.5 -103v-302h-84v510zM112 573q7 54 36.5 84t72.5 30q40 0 75 -26q31 -23 52 -23q37 0 44 49h62q-11 -113 -104 -113q-40 0 -76 26q-32 22 -53 22
q-39 0 -49 -49h-60z" />
    <glyph glyph-name="ograve" unicode="&#xf2;" horiz-adv-x="552" 
d="M276 450q-68 0 -105.5 -51t-37.5 -143q0 -196 143 -196q68 0 105.5 48.5t37.5 147.5q0 194 -143 194zM276 -14q-110 0 -170.5 69.5t-60.5 200.5q0 126 62 197t169 71q113 0 172 -70t59 -198q0 -122 -61 -196t-170 -74zM125 718h105l101 -146h-88z" />
    <glyph glyph-name="oacute" unicode="&#xf3;" horiz-adv-x="552" 
d="M276 450q-68 0 -105.5 -51t-37.5 -143q0 -196 143 -196q68 0 105.5 48.5t37.5 147.5q0 194 -143 194zM276 -14q-110 0 -170.5 69.5t-60.5 200.5q0 126 62 197t169 71q113 0 172 -70t59 -198q0 -122 -61 -196t-170 -74zM319 572h-88l101 146h105z" />
    <glyph glyph-name="ocircumflex" unicode="&#xf4;" horiz-adv-x="552" 
d="M276 450q-68 0 -105.5 -51t-37.5 -143q0 -196 143 -196q68 0 105.5 48.5t37.5 147.5q0 194 -143 194zM276 -14q-110 0 -170.5 69.5t-60.5 200.5q0 126 62 197t169 71q113 0 172 -70t59 -198q0 -122 -61 -196t-170 -74zM281 661l-74 -89h-80l107 146h94l106 -146h-83z" />
    <glyph glyph-name="otilde" unicode="&#xf5;" horiz-adv-x="552" 
d="M276 450q-68 0 -105.5 -51t-37.5 -143q0 -196 143 -196q68 0 105.5 48.5t37.5 147.5q0 194 -143 194zM276 -14q-110 0 -170.5 69.5t-60.5 200.5q0 126 62 197t169 71q113 0 172 -70t59 -198q0 -122 -61 -196t-170 -74zM107 573q7 54 36.5 84t72.5 30q40 0 75 -26
q31 -23 52 -23q37 0 44 49h62q-11 -113 -104 -113q-40 0 -76 26q-32 22 -53 22q-39 0 -49 -49h-60z" />
    <glyph glyph-name="odieresis" unicode="&#xf6;" horiz-adv-x="552" 
d="M276 450q-68 0 -105.5 -51t-37.5 -143q0 -196 143 -196q68 0 105.5 48.5t37.5 147.5q0 194 -143 194zM276 -14q-110 0 -170.5 69.5t-60.5 200.5q0 126 62 197t169 71q113 0 172 -70t59 -198q0 -122 -61 -196t-170 -74zM327 706h100v-100h-100v100zM130 706h100v-100h-100
v100z" />
    <glyph glyph-name="divide" unicode="&#xf7;" 
d="M50 328h446v-70h-446v70zM223 158h100v-100h-100v100zM223 528h100v-100h-100v100z" />
    <glyph glyph-name="oslash" unicode="&#xf8;" horiz-adv-x="552" 
d="M276 -14q-76 0 -131 34l-62 -82l-53 36l68 91q-53 68 -53 191q0 126 62 197t169 71q78 0 135 -37l62 82l53 -36l-68 -91q49 -66 49 -186q0 -122 -61 -196t-170 -74zM276 450q-68 0 -105.5 -51t-37.5 -143q0 -71 19 -118l211 284q-34 28 -87 28zM419 256q0 67 -17 111
l-209 -283q33 -24 83 -24q68 0 105.5 48.5t37.5 147.5z" />
    <glyph glyph-name="ugrave" unicode="&#xf9;" horiz-adv-x="549" 
d="M474 0h-84v65h-2q-42 -79 -143 -79q-79 0 -125.5 47.5t-46.5 147.5v329h84v-323q0 -121 112 -121q54 0 87.5 36t33.5 95v313h84v-510zM120 718h105l101 -146h-88z" />
    <glyph glyph-name="uacute" unicode="&#xfa;" horiz-adv-x="549" 
d="M474 0h-84v65h-2q-42 -79 -143 -79q-79 0 -125.5 47.5t-46.5 147.5v329h84v-323q0 -121 112 -121q54 0 87.5 36t33.5 95v313h84v-510zM314 572h-88l101 146h105z" />
    <glyph glyph-name="ucircumflex" unicode="&#xfb;" horiz-adv-x="549" 
d="M474 0h-84v65h-2q-42 -79 -143 -79q-79 0 -125.5 47.5t-46.5 147.5v329h84v-323q0 -121 112 -121q54 0 87.5 36t33.5 95v313h84v-510zM280 661l-74 -89h-80l107 146h94l106 -146h-83z" />
    <glyph glyph-name="udieresis" unicode="&#xfc;" horiz-adv-x="549" 
d="M474 0h-84v65h-2q-42 -79 -143 -79q-79 0 -125.5 47.5t-46.5 147.5v329h84v-323q0 -121 112 -121q54 0 87.5 36t33.5 95v313h84v-510zM324 706h100v-100h-100v100zM127 706h100v-100h-100v100z" />
    <glyph glyph-name="yacute" unicode="&#xfd;" horiz-adv-x="464" 
d="M72 -229q-40 0 -64 8v75q30 -6 47 -6q32 0 54 18t39 58l38 91l-185 495h89l138 -391h3l148 391h90l-241 -601q-33 -78 -70 -108t-86 -30zM269 572h-88l101 146h105z" />
    <glyph glyph-name="thorn" unicode="&#xfe;" horiz-adv-x="576" 
d="M297 59q71 0 108.5 51t37.5 147q0 90 -34.5 142t-107.5 52q-69 0 -107 -50.5t-38 -145.5q0 -102 39.5 -149t101.5 -47zM75 731h84v-286h2q53 79 154 79t158.5 -69t57.5 -194q0 -124 -60.5 -199.5t-162.5 -75.5q-104 0 -147 79h-2v-288h-84v954z" />
    <glyph glyph-name="ydieresis" unicode="&#xff;" horiz-adv-x="464" 
d="M72 -229q-40 0 -64 8v75q30 -6 47 -6q32 0 54 18t39 58l38 91l-185 495h89l138 -391h3l148 391h90l-241 -601q-33 -78 -70 -108t-86 -30zM283 706h100v-100h-100v100zM86 706h100v-100h-100v100z" />
    <glyph glyph-name="dotlessi" unicode="&#x131;" horiz-adv-x="239" 
d="M79 510h84v-510h-84v510z" />
    <glyph glyph-name="Lslash" unicode="&#x141;" horiz-adv-x="552" 
d="M25 294l81 53v365h87v-309l139 91v-86l-139 -91v-236h345v-81h-432v261l-81 -53v86z" />
    <glyph glyph-name="lslash" unicode="&#x142;" horiz-adv-x="298" 
d="M19 318l80 63v349h84v-283l96 75v-86l-96 -75v-236q0 -33 13.5 -44t35.5 -11q20 0 34 4v-73q-33 -6 -53 -6q-60 0 -87 31t-27 94v175l-80 -63v86z" />
    <glyph glyph-name="OE" unicode="&#x152;" horiz-adv-x="1007" 
d="M514 30q-65 -44 -161 -44q-70 0 -122 19.5t-89.5 61t-58.5 103.5t-22 186q0 117 21 179.5t58.5 104t93 64t127.5 22.5q90 0 153 -37v23h443v-81h-356v-234h333v-81h-333v-235h366v-81h-453v30zM154 356q0 -104 13 -151t38.5 -78t63 -45.5t96.5 -14.5q85 0 149 46v484
q-57 52 -147 52q-162 0 -202 -151q-11 -41 -11 -142z" />
    <glyph glyph-name="oe" unicode="&#x153;" horiz-adv-x="902" 
d="M503 229q5 -82 43 -125.5t104 -43.5q98 0 124 84h87q-19 -74 -75.5 -116t-137.5 -42q-130 0 -188 103q-56 -103 -184 -103q-110 0 -170.5 69.5t-60.5 200.5q0 126 62 197t169 71q134 0 187 -102q59 102 183 102q104 0 161.5 -67.5t57.5 -197.5v-30h-362zM276 450
q-68 0 -105.5 -51t-37.5 -143q0 -196 143 -196q68 0 105.5 48.5t37.5 147.5q0 194 -143 194zM773 297q-8 156 -129 156q-60 0 -97 -41.5t-44 -114.5h270z" />
    <glyph glyph-name="Scaron" unicode="&#x160;" horiz-adv-x="646" 
d="M494 506q-8 69 -46.5 105.5t-122.5 36.5q-80 0 -119 -35.5t-39 -92.5t38.5 -81t138.5 -34q107 -11 155.5 -33t71.5 -62.5t23 -107.5q0 -101 -72 -158.5t-196 -57.5q-134 0 -203 58t-78 179h95q8 -85 56 -120t136 -35q81 0 124.5 34t43.5 98q0 55 -35.5 81t-152.5 39
q-134 12 -188 57.5t-54 137.5q0 60 30 108t88 75.5t140 27.5q123 0 186 -52t70 -168h-90zM329 831l74 89h80l-107 -146h-94l-106 146h83z" />
    <glyph glyph-name="scaron" unicode="&#x161;" horiz-adv-x="490" 
d="M127 154q2 -46 32.5 -72t87.5 -26q54 0 84 23.5t30 64.5q0 32 -25.5 49.5t-98.5 25.5q-102 12 -144 47t-42 97q0 70 52.5 115.5t141.5 45.5q178 0 193 -152h-84q-9 85 -114 85q-47 0 -75 -23t-28 -60q0 -34 24.5 -51.5t94.5 -25.5q91 -13 123.5 -28.5t52 -42.5t19.5 -73
q0 -77 -56 -122t-148 -45q-196 0 -209 168h89zM249 629l74 89h80l-107 -146h-94l-106 146h83z" />
    <glyph glyph-name="Ydieresis" unicode="&#x178;" horiz-adv-x="569" 
d="M241 286l-246 426h102l187 -344l188 344h102l-246 -426v-286h-87v286zM334 903h100v-100h-100v100zM137 903h100v-100h-100v100z" />
    <glyph glyph-name="Zcaron" unicode="&#x17d;" horiz-adv-x="584" 
d="M55 712h496v-87l-430 -544h449v-81h-550v89l428 542h-393v81zM306 831l74 89h80l-107 -146h-94l-106 146h83z" />
    <glyph glyph-name="zcaron" unicode="&#x17e;" horiz-adv-x="427" 
d="M306 440h-266v70h369v-68l-293 -372h299v-70h-400v70zM225 629l74 89h80l-107 -146h-94l-106 146h83z" />
    <glyph glyph-name="florin" unicode="&#x192;" 
d="M112 -9q-39 0 -72 12v73q31 -13 69 -13t58 28t28 88l42 261h-118v70h129l12 76q13 75 49.5 114.5t112.5 39.5q39 0 79 -11v-69q-40 10 -67 10q-38 0 -60 -19t-30 -64l-12 -77h130v-70h-141l-46 -292q-28 -157 -163 -157z" />
    <glyph glyph-name="circumflex" unicode="&#x2c6;" horiz-adv-x="352" 
d="M177 661l-74 -89h-80l107 146h94l106 -146h-83z" />
    <glyph glyph-name="caron" unicode="&#x2c7;" horiz-adv-x="352" 
d="M176 629l74 89h80l-107 -146h-94l-106 146h83z" />
    <glyph glyph-name="breve" unicode="&#x2d8;" horiz-adv-x="352" 
d="M92 717q0 -37 21 -56.5t57 -19.5t58 20t24 56h69q0 -60 -44.5 -101t-107.5 -41q-67 0 -106.5 38t-39.5 104h69z" />
    <glyph glyph-name="dotaccent" unicode="&#x2d9;" horiz-adv-x="352" 
d="M121 716h110v-110h-110v110z" />
    <glyph glyph-name="ring" unicode="&#x2da;" horiz-adv-x="352" 
d="M175 545q-40 0 -69.5 28.5t-29.5 70.5t28.5 71t70.5 29q41 0 70.5 -29.5t29.5 -70.5q0 -40 -30 -69.5t-70 -29.5zM175 698q-23 0 -38.5 -15.5t-15.5 -38.5t15.5 -38.5t38.5 -15.5t38.5 15.5t15.5 38.5t-15.5 38.5t-38.5 15.5z" />
    <glyph glyph-name="ogonek" unicode="&#x2db;" horiz-adv-x="352" 
d="M250 -206q-42 -17 -89 -17q-40 0 -67.5 22.5t-27.5 64.5q0 57 62 95l136 73l31 -37l-28 -16l-96 -60q-17 -11 -25.5 -21.5t-8.5 -27.5q0 -34 46 -34q28 0 67 15v-57z" />
    <glyph glyph-name="tilde" unicode="&#x2dc;" horiz-adv-x="352" 
d="M5 573q7 54 36.5 84t72.5 30q40 0 75 -26q31 -23 52 -23q37 0 44 49h62q-11 -113 -104 -113q-40 0 -76 26q-32 22 -53 22q-39 0 -49 -49h-60z" />
    <glyph glyph-name="hungarumlaut" unicode="&#x2dd;" horiz-adv-x="390" 
d="M108 572h-88l101 146h105zM292 572h-88l101 146h105z" />
    <glyph glyph-name="pi" unicode="&#x3c0;" horiz-adv-x="576" 
d="M192 0h-82v440h-102v70h553v-70h-129v-307q0 -42 13.5 -57.5t40.5 -15.5q17 0 57 8v-68q-12 -2 -31.5 -6.5t-48.5 -4.5q-115 0 -115 142v309h-156v-440z" />
    <glyph glyph-name="endash" unicode="&#x2013;" horiz-adv-x="570" 
d="M60 217v76h450v-76h-450z" />
    <glyph glyph-name="emdash" unicode="&#x2014;" horiz-adv-x="730" 
d="M60 217v76h610v-76h-610z" />
    <glyph glyph-name="quoteleft" unicode="&#x2018;" horiz-adv-x="213" 
d="M163 443h-113v113q0 69 32.5 111t80.5 53v-69q-26 -11 -38 -32t-12 -63h50v-113z" />
    <glyph glyph-name="quoteright" unicode="&#x2019;" horiz-adv-x="213" 
d="M50 701h113v-113q0 -69 -32.5 -111t-80.5 -53v69q26 11 38 32t12 63h-50v113z" />
    <glyph glyph-name="quotesinglbase" unicode="&#x201a;" horiz-adv-x="213" 
d="M50 84h113v-113q0 -69 -32.5 -111t-80.5 -53v69q26 11 38 32t12 63h-50v113z" />
    <glyph glyph-name="quotedblleft" unicode="&#x201c;" horiz-adv-x="398" 
d="M163 443h-113v113q0 69 32.5 111t80.5 53v-69q-26 -11 -38 -32t-12 -63h50v-113zM348 443h-113v113q0 69 32.5 111t80.5 53v-69q-26 -11 -38 -32t-12 -63h50v-113z" />
    <glyph glyph-name="quotedblright" unicode="&#x201d;" horiz-adv-x="398" 
d="M235 701h113v-113q0 -69 -32.5 -111t-80.5 -53v69q26 11 38 32t12 63h-50v113zM50 701h113v-113q0 -69 -32.5 -111t-80.5 -53v69q26 11 38 32t12 63h-50v113z" />
    <glyph glyph-name="quotedblbase" unicode="&#x201e;" horiz-adv-x="398" 
d="M235 84h113v-113q0 -69 -32.5 -111t-80.5 -53v69q26 11 38 32t12 63h-50v113zM50 84h113v-113q0 -69 -32.5 -111t-80.5 -53v69q26 11 38 32t12 63h-50v113z" />
    <glyph glyph-name="dagger" unicode="&#x2020;" horiz-adv-x="360" 
d="M217 417v-380h-74v380h-108v71h108v159h74v-159h108v-71h-108z" />
    <glyph glyph-name="daggerdbl" unicode="&#x2021;" horiz-adv-x="360" 
d="M217 244v-207h-74v207h-108v71h108v102h-108v71h108v159h74v-159h108v-71h-108v-102h108v-71h-108z" />
    <glyph glyph-name="bullet" unicode="&#x2022;" horiz-adv-x="354" 
d="M279 188h-204v204h204v-204z" />
    <glyph glyph-name="ellipsis" unicode="&#x2026;" horiz-adv-x="811" 
d="M461 0h-113v113h113v-113zM733 0h-113v113h113v-113zM191 0h-113v113h113v-113z" />
    <glyph glyph-name="perthousand" unicode="&#x2030;" horiz-adv-x="1304" 
d="M630 712h76l-434 -712h-76zM1091 322q-47 0 -74 -35t-27 -97q0 -64 26 -99t75 -35q48 0 74.5 34.5t26.5 99.5t-26.5 98.5t-74.5 33.5zM1091 -5q-80 0 -125.5 49.5t-45.5 145.5q0 91 46.5 142.5t124.5 51.5q80 0 125.5 -49.5t45.5 -144.5q0 -89 -46 -142t-125 -53z
M213 656q-47 0 -74 -35t-27 -97q0 -64 26 -99t75 -35q48 0 74.5 34.5t26.5 99.5t-26.5 98.5t-74.5 33.5zM213 329q-80 0 -125.5 49.5t-45.5 145.5q0 91 46.5 142.5t124.5 51.5q80 0 125.5 -49.5t45.5 -144.5q0 -89 -46 -142t-125 -53zM688 322q-47 0 -74 -35t-27 -97
q0 -64 26 -99t75 -35q48 0 74.5 34.5t26.5 99.5t-26.5 98.5t-74.5 33.5zM688 -5q-80 0 -125.5 49.5t-45.5 145.5q0 91 46.5 142.5t124.5 51.5q80 0 125.5 -49.5t45.5 -144.5q0 -89 -46 -142t-125 -53z" />
    <glyph glyph-name="guilsinglleft" unicode="&#x2039;" horiz-adv-x="229" 
d="M179 103l-129 134v94l129 133v-100l-79 -80l79 -81v-100z" />
    <glyph glyph-name="guilsinglright" unicode="&#x203a;" horiz-adv-x="229" 
d="M50 464l129 -134v-94l-129 -133v100l79 80l-79 81v100z" />
    <glyph glyph-name="fraction" unicode="&#x2044;" horiz-adv-x="166" 
d="M267 712h76l-444 -712h-76z" />
    <glyph glyph-name="foursuperior" unicode="&#x2074;" horiz-adv-x="351" 
d="M186 718h69l-171 -273h124v140h65v-140h51v-58h-51v-90h-65v90h-190v62z" />
    <glyph glyph-name="Euro" unicode="&#x20ac;" 
d="M193 239q11 -90 43.5 -132t94.5 -42q43 0 71.5 18t47.5 74h90q-25 -90 -76.5 -130.5t-132.5 -40.5q-99 0 -155.5 61t-70.5 192h-93v64h88l-1 26v65h-87v64h92q24 268 227 268q82 0 132.5 -38t76.5 -129h-90q-15 45 -41 66.5t-78 21.5q-61 0 -95 -43.5t-45 -145.5h220v-64
h-224v-66l1 -25h223v-64h-218z" />
    <glyph glyph-name="trademark" unicode="&#x2122;" horiz-adv-x="876" 
d="M503 712l108 -302h1l115 302h87v-396h-60v316h-1l-117 -316h-50l-114 316h-1v-316h-59v396h91zM239 316h-64v337h-118v59h300v-59h-118v-337z" />
    <glyph glyph-name="uni2126" unicode="&#x2126;" horiz-adv-x="707" 
d="M403 134q48 11 79 35.5t50.5 72t19.5 144.5q0 103 -23.5 158.5t-65.5 82t-110 26.5q-64 0 -107.5 -27t-67.5 -81t-24 -159q0 -119 34 -176t116 -74v-136h-259v81h192v6q-63 16 -106 65t-57 108.5t-14 132.5q0 171 77.5 254.5t217.5 83.5q89 0 153.5 -35t100.5 -107
t36 -207q0 -75 -15 -127.5t-57.5 -101t-101.5 -65.5v-7h192v-81h-260v134z" />
    <glyph glyph-name="arrowleft" unicode="&#x2190;" horiz-adv-x="771" 
d="M401 722l56 -56l-271 -272h545v-76h-545l271 -272l-56 -56l-366 366z" />
    <glyph glyph-name="arrowright" unicode="&#x2192;" horiz-adv-x="771" 
d="M370 -10l-56 56l271 272h-545v76h545l-271 272l56 56l366 -366z" />
    <glyph glyph-name="partialdiff" unicode="&#x2202;" horiz-adv-x="523" 
d="M388 284q-61 75 -137 75q-56 0 -92 -40t-36 -109q0 -66 33.5 -108t89.5 -42q63 0 102.5 62t39.5 162zM487 360q0 -183 -63 -277.5t-181 -94.5q-98 0 -154 66t-58 160q0 97 58.5 157.5t148.5 60.5q83 0 153 -66l1 43q0 104 -44.5 170.5t-119.5 66.5q-54 0 -116 -48l-51 60
q38 30 76 46.5t88 16.5q125 0 193.5 -96t68.5 -265z" />
    <glyph glyph-name="uni2206" unicode="&#x2206;" horiz-adv-x="623" 
d="M17 75l250 637h105l234 -635v-77h-589v75zM118 85h388l-186 527h-2z" />
    <glyph glyph-name="product" unicode="&#x220f;" horiz-adv-x="719" 
d="M660 -214h-96v913h-408v-913h-96v1000h600v-1000z" />
    <glyph glyph-name="summation" unicode="&#x2211;" horiz-adv-x="621" 
d="M589 699h-429l287 -407l-306 -419h460v-87h-581v77l312 428l-299 419v76h556v-87z" />
    <glyph glyph-name="minus" unicode="&#x2212;" 
d="M496 328v-70h-446v70h446z" />
    <glyph glyph-name="radical" unicode="&#x221a;" horiz-adv-x="511" 
d="M316 -214h-91l-157 325l-49 -23l-35 75l131 61l140 -296l176 858h96z" />
    <glyph glyph-name="infinity" unicode="&#x221e;" 
d="M234 295q-42 42 -56 51.5t-25 14t-23 4.5q-26 0 -40.5 -20.5t-14.5 -48.5q0 -30 15.5 -48t42.5 -18q26 0 56.5 22.5t44.5 42.5zM471 296q0 31 -14.5 50t-43.5 19q-36 0 -80 -48l-21 -22q36 -40 58.5 -53t44.5 -13q27 0 41.5 19t14.5 48zM535 299q0 -59 -33 -96.5
t-85 -37.5q-73 0 -144 87l-32 -32q-55 -55 -111 -55q-50 0 -84.5 37.5t-34.5 94.5q0 56 31.5 93.5t85.5 37.5q70 0 145 -90q76 92 143 92q53 0 86 -37t33 -94z" />
    <glyph glyph-name="integral" unicode="&#x222b;" horiz-adv-x="569" 
d="M444 721q0 -20 -13 -33t-33 -13q-28 0 -43 28q-7 11 -11.5 19t-11.5 8q-24 0 -24 -53l1 -22l2 -94v-524q0 -107 -11.5 -150.5t-40.5 -72t-83 -28.5q-33 0 -59.5 18.5t-26.5 44.5q0 18 11 31.5t30 13.5q27 0 43 -29q5 -11 9 -19.5t10 -8.5q24 0 24 55l-2 33v644
q0 87 13.5 129t42.5 65t79 23q39 0 66.5 -18t27.5 -47z" />
    <glyph glyph-name="approxequal" unicode="&#x2248;" 
d="M165 264q51 0 124 -40q59 -32 85 -32q58 0 70 67h68q-7 -68 -42.5 -102.5t-88.5 -34.5q-38 0 -67 12t-58 27q-63 33 -88 33q-54 0 -67 -68h-68q8 67 43.5 102.5t88.5 35.5zM166 465q51 0 124 -40q59 -32 85 -32q58 0 70 67h68q-7 -68 -42.5 -102.5t-88.5 -34.5
q-38 0 -67 12t-58 27q-63 33 -88 33q-54 0 -67 -68h-68q8 67 43.5 102.5t88.5 35.5z" />
    <glyph glyph-name="notequal" unicode="&#x2260;" 
d="M206 224l70 138h-226v70h262l56 109h65l-56 -109h119v-70h-155l-70 -138h225v-70h-261l-55 -107h-65l55 107h-120v70h156z" />
    <glyph glyph-name="lessequal" unicode="&#x2264;" 
d="M50 70h446v-70h-446v70zM368 612l49 -49l-200 -200l200 -200l-49 -49l-251 249z" />
    <glyph glyph-name="greaterequal" unicode="&#x2265;" 
d="M496 0h-446v70h446v-70zM429 363l-251 -249l-49 49l200 200l-200 200l49 49z" />
    <glyph glyph-name="lozenge" unicode="&#x25ca;" horiz-adv-x="583" 
d="M166 356l125 -301l125 301l-125 300zM509 356l-175 -391h-86l-174 391l174 391h86z" />
    <glyph glyph-name="fi" unicode="&#xfb01;" horiz-adv-x="555" 
d="M99 440h-88v70h88v69q0 79 46.5 116.5t118.5 37.5q28 0 70 -7v-72q-36 9 -67 9q-84 0 -84 -83v-70h130v-70h-130v-440h-84v440zM381 748h99v-99h-99v99zM390 510h84v-510h-84v510z" />
    <glyph glyph-name="fl" unicode="&#xfb02;" horiz-adv-x="550" 
d="M99 440h-88v70h88v69q0 79 46.5 116.5t118.5 37.5q28 0 70 -7v-72q-36 9 -67 9q-84 0 -84 -83v-70h130v-70h-130v-440h-84v440zM553 1q-33 -6 -53 -6q-60 0 -87 31t-27 94v610h84v-605q0 -33 13.5 -44t35.5 -11q20 0 34 4v-73z" />
    <glyph glyph-name="mu" horiz-adv-x="0" 
 />
    <glyph glyph-name="arrowne" horiz-adv-x="679" 
d="M599 84h-79l-1 384l-385 -385l-54 54l385 385l-384 1v79h518v-518z" />
    <glyph glyph-name="arrownw" horiz-adv-x="678" 
d="M598 608v-79h-384l384 -386l-54 -54l-385 384v-384h-79v519h518z" />
    </font>
</defs>
</svg>
